<?xml version="1.0" encoding="UTF-8"?>
<svg width="25px" height="24px" viewBox="0 0 25 24" version="1.1" xmlns="http://www.w3.org/2000/svg" xmlns:xlink="http://www.w3.org/1999/xlink">
    <!-- Generator: Sketch 55.2 (78181) - https://sketchapp.com -->
    <title>Advertising Spent-icon</title>
    <desc>Created with Sketch.</desc>
    <g id="页面1" stroke="none" stroke-width="1" fill="none" fill-rule="evenodd">
        <g id="Dashboard" transform="translate(-289.000000, -282.000000)" fill="#F48A26" fill-rule="nonzero">
            <g id="main" transform="translate(248.000000, 111.000000)">
                <g id="表单#2" transform="translate(24.000000, 72.000000)">
                    <g id="图表" transform="translate(0.000000, 48.000000)">
                        <path d="M33.9243405,75.0046652 C32.8730403,75.0046652 31.8592866,74.7793866 30.9206257,74.3288294 C30.169697,74.4414687 29.4187683,74.4414687 28.6302932,74.4414687 C22.9983279,74.4414687 17.0284448,72.826972 17.0284448,69.8232572 L17.0284448,55.8184369 C17.0284448,55.1426011 17.2912698,54.5418581 17.8544663,53.9786616 C19.7693345,52.026247 24.6128246,51.162679 28.5552003,51.162679 C34.1871655,51.162679 40.1570487,52.7771757 40.1570487,55.8184369 L40.1570487,64.4165705 C41.2458953,66.4065316 41.3209882,68.8095034 40.3447809,70.9121038 C39.2183878,73.3901685 36.7027767,75.0046652 33.9243405,75.0046652 L33.9243405,75.0046652 Z M33.9243405,62.1637845 C30.8079864,62.1637845 28.2923753,64.716942 28.2923753,67.8332961 C28.2923753,69.3351535 28.8555718,70.7243716 29.9068719,71.8132182 C30.9957185,72.9020648 32.4224831,73.5028078 33.9618869,73.5028078 C37.078241,73.5028078 39.5938521,70.9496502 39.5938521,67.8708425 C39.5938521,64.7920349 37.0406946,62.1637845 33.9243405,62.1637845 Z M18.5303022,69.7106179 L18.5303022,69.8232572 C18.5303022,71.2875681 22.8481422,72.9396113 28.5927467,72.9396113 L28.8555718,72.9396113 C27.9544573,72.0384968 27.3161679,70.9871966 26.97825,69.7857107 C23.3362458,69.5604321 20.1823453,68.7344106 18.4552093,67.5329246 L18.4552093,69.7481643 L18.5303022,69.7481643 L18.5303022,69.7106179 Z M18.5303022,65.1299528 C18.5303022,66.3689851 21.9094813,67.908389 26.7905179,68.2087605 L26.7905179,67.8708425 C26.7905179,66.9697281 26.97825,66.0310672 27.3537144,65.0924064 C23.4864316,64.9046742 20.2949846,64.0786526 18.5303022,62.8396203 L18.5303022,65.1299528 Z M18.5303022,60.5868342 C18.7180343,61.9760523 22.7730493,63.5530025 28.1797359,63.6280954 C28.4050145,63.3277239 28.6302932,63.0648989 28.8555718,62.8396203 C30.169697,61.4879486 31.9719259,60.7370199 33.9243405,60.7370199 C35.6890229,60.7370199 37.3786125,61.3753093 38.7302841,62.5767952 L38.7302841,58.1838623 C36.7778695,59.5730804 32.9481332,60.4366484 28.6302932,60.4366484 C24.3124532,60.4366484 20.4827168,59.5730804 18.5303022,58.1838623 L18.5303022,60.5868342 Z M28.5927467,52.7020829 C22.8105957,52.7020829 18.4927557,54.354126 18.4927557,55.8559834 C18.4927557,57.3578407 22.7730493,58.9347911 28.5552003,58.9347911 C34.3373513,58.9347911 38.6176449,57.2827479 38.6176449,55.8184369 C38.6176449,55.5556119 38.5050055,55.2927869 38.2421805,55.0299618 C37.1533339,53.9035687 33.6615154,52.7020829 28.5927467,52.7020829 Z M30.6578007,68.5842248 C30.2447899,68.5842248 29.9068719,68.2463069 29.9068719,67.8332961 C29.9068719,67.4202853 30.2447899,67.0823674 30.6578007,67.0823674 L37.1533339,67.0823674 C37.5663447,67.0823674 37.9042626,67.4202853 37.9042626,67.8332961 C37.9042626,68.2463069 37.5663447,68.5842248 37.1533339,68.5842248 L30.6578007,68.5842248 Z" id="Advertising-Spent-icon"></path>
                    </g>
                </g>
            </g>
        </g>
    </g>
</svg>