<?xml version="1.0" encoding="UTF-8"?>
<svg width="641px" height="641px" viewBox="0 0 641 641" version="1.1" xmlns="http://www.w3.org/2000/svg" xmlns:xlink="http://www.w3.org/1999/xlink">
    <!-- Generator: Sketch 55.2 (78181) - https://sketchapp.com -->
    <title>img</title>
    <desc>Created with Sketch.</desc>
    <g id="页面1" stroke="none" stroke-width="1" fill="none" fill-rule="evenodd">
        <g id="登录页面-hover" transform="translate(-681.000000, -93.000000)">
            <g id="main" transform="translate(170.000000, 93.000000)">
                <g id="img" transform="translate(511.000000, 0.000000)">
                    <circle id="椭圆形" fill="#00A3FD" opacity="0.049999997" cx="320.468779" cy="320.5" r="320"></circle>
                    <g id="Image" transform="translate(40.000000, 57.000000)">
                        <g id="Web" transform="translate(73.559395, 0.000000)">
                            <rect id="Container" fill="#F2F2F2" x="0" y="0" width="416.908396" height="364.260973" rx="8"></rect>
                            <path d="M8,0 L408.908396,0 C413.326674,-8.11624501e-16 416.908396,3.581722 416.908396,8 L416.908396,28.4290008 L0,28.4290008 L0,8 C-5.41083001e-16,3.581722 3.581722,8.11624501e-16 8,0 Z" id="Header" fill="#E6E6E6"></path>
                            <g id="Buttons" transform="translate(9.000000, 10.000000)">
                                <circle id="buttons" fill="#EC5534" cx="4" cy="4" r="4"></circle>
                                <circle id="buttons" fill="#FDAC00" cx="16" cy="4" r="4"></circle>
                                <circle id="buttons" fill="#62BB39" cx="28" cy="4" r="4"></circle>
                            </g>
                            <g id="Content" transform="translate(208.500000, 193.500000) scale(-1, 1) translate(-208.500000, -193.500000) translate(16.000000, 43.000000)">
                                <g id="Components" transform="translate(314.908396, 89.000000)">
                                    <rect id="Background" fill="#FFFFFF" x="0" y="0" width="70" height="211.117467" rx="8"></rect>
                                    <g id="Rows" transform="translate(18.000000, 18.000000)">
                                        <rect id="Data" fill="#DDE3E9" x="0" y="0" width="34" height="33" rx="4"></rect>
                                        <rect id="Data" fill="#AFB9C5" x="0" y="41" width="34" height="27" rx="4"></rect>
                                        <rect id="Data" fill="#DDE3E9" x="0" y="76" width="34" height="27" rx="4"></rect>
                                        <rect id="Data" fill="#DDE3E9" x="0" y="146" width="34" height="27" rx="4"></rect>
                                        <rect id="Data" fill="#C5CFD6" x="0" y="111" width="34" height="27" rx="4"></rect>
                                    </g>
                                </g>
                                <g id="Profile" transform="translate(314.908396, 0.000000)">
                                    <rect id="Background" fill="#FFFFFF" x="0" y="0" width="70" height="85.8970348" rx="8"></rect>
                                    <g id="Profile-Info" transform="translate(10.000000, 17.699709)" fill="#DDE3E9">
                                        <circle id="Avatar" cx="25" cy="16.9277475" r="16"></circle>
                                        <rect id="Name" x="0" y="34" width="50" height="6" rx="3"></rect>
                                        <rect id="Name" x="8" y="44" width="34" height="6" rx="3"></rect>
                                    </g>
                                </g>
                                <g id="Rows">
                                    <g id="Row">
                                        <rect id="Container" fill="#FFFFFF" x="0" y="0" width="306.908396" height="53.4893628" rx="4"></rect>
                                        <g id="Text-Stuff" transform="translate(9.000000, 16.050706)" fill="#DDE3E9">
                                            <rect id="Label" x="0" y="0" width="248.987607" height="8.02535302" rx="3"></rect>
                                            <rect id="Label" x="0" y="13.3755884" width="167.128668" height="8.02535302" rx="3"></rect>
                                        </g>
                                        <g id="Check" transform="translate(267.168048, 19.751177)">
                                            <circle id="Background" fill="#DDE3E9" cx="7" cy="7" r="7"></circle>
                                            <circle id="Indicator" fill="#F2F2F2" cx="7" cy="7" r="3"></circle>
                                        </g>
                                    </g>
                                    <g id="Row" transform="translate(0.000000, 62.000000)">
                                        <rect id="Container" fill="#FFFFFF" x="0" y="0" width="306.908396" height="40.2683831" rx="4"></rect>
                                        <g id="Text-Stuff" transform="translate(9.000000, 12.111936)" fill="#DDE3E9">
                                            <rect id="Label" x="0" y="0" width="248.987607" height="6.0559682" rx="3"></rect>
                                            <rect id="Label" x="0" y="10.0932803" width="167.128668" height="6.0559682" rx="3"></rect>
                                        </g>
                                        <g id="Check" transform="translate(267.168048, 13.186561)">
                                            <circle id="Background" fill="#DDE3E9" cx="7" cy="7" r="7"></circle>
                                            <circle id="Indicator" fill="#F2F2F2" cx="7" cy="7" r="3"></circle>
                                        </g>
                                    </g>
                                    <g id="Row" transform="translate(0.000000, 111.000000)">
                                        <rect id="Container" fill="#FFFFFF" x="0" y="0" width="306.908396" height="40.2683831" rx="4"></rect>
                                        <g id="Text-Stuff" transform="translate(9.000000, 12.111936)" fill="#DDE3E9">
                                            <rect id="Label" x="0" y="0" width="248.987607" height="6.0559682" rx="3"></rect>
                                            <rect id="Label" x="0" y="10.0932803" width="167.128668" height="6.0559682" rx="3"></rect>
                                        </g>
                                        <g id="Check" transform="translate(267.168048, 13.186561)">
                                            <circle id="Background" fill="#DDE3E9" cx="7" cy="7" r="7"></circle>
                                            <circle id="Indicator" fill="#AFB9C5" cx="7" cy="7" r="3"></circle>
                                        </g>
                                    </g>
                                    <g id="Row" transform="translate(0.000000, 258.000000)">
                                        <rect id="Container" fill="#FFFFFF" x="0" y="0" width="306.908396" height="40.2683831" rx="4"></rect>
                                        <g id="Text-Stuff" transform="translate(9.000000, 12.111936)" fill="#DDE3E9">
                                            <rect id="Label" x="0" y="0" width="248.987607" height="6.0559682" rx="3"></rect>
                                            <rect id="Label" x="0" y="10.0932803" width="167.128668" height="6.0559682" rx="3"></rect>
                                        </g>
                                        <g id="Check" transform="translate(267.168048, 13.186561)">
                                            <circle id="Background" fill="#DDE3E9" cx="7" cy="7" r="7"></circle>
                                            <circle id="Indicator" fill="#F2F2F2" cx="7" cy="7" r="3"></circle>
                                        </g>
                                    </g>
                                    <g id="Row" transform="translate(0.000000, 209.000000)">
                                        <rect id="Container" fill="#FFFFFF" x="0" y="0" width="306.908396" height="40.2683831" rx="4"></rect>
                                        <g id="Text-Stuff" transform="translate(9.000000, 12.111936)" fill="#DDE3E9">
                                            <rect id="Label" x="0" y="0" width="248.987607" height="6.0559682" rx="3"></rect>
                                            <rect id="Label" x="0" y="10.0932803" width="167.128668" height="6.0559682" rx="3"></rect>
                                        </g>
                                        <g id="Check" transform="translate(267.168048, 13.186561)">
                                            <circle id="Background" fill="#DDE3E9" cx="7" cy="7" r="7"></circle>
                                            <circle id="Indicator" fill="#F2F2F2" cx="7" cy="7" r="3"></circle>
                                        </g>
                                    </g>
                                    <g id="Row" transform="translate(0.000000, 160.000000)">
                                        <rect id="Container" fill="#FFFFFF" x="0" y="0" width="306.908396" height="40.2683831" rx="4"></rect>
                                        <g id="Text-Stuff" transform="translate(9.000000, 12.111936)" fill="#DDE3E9">
                                            <rect id="Label" x="0" y="0" width="248.987607" height="6.0559682" rx="3"></rect>
                                            <rect id="Label" x="0" y="10.0932803" width="167.128668" height="6.0559682" rx="3"></rect>
                                        </g>
                                        <g id="Check" transform="translate(267.168048, 13.186561)">
                                            <circle id="Background" fill="#DDE3E9" cx="7" cy="7" r="7"></circle>
                                            <circle id="Indicator" fill="#F2F2F2" cx="7" cy="7" r="3"></circle>
                                        </g>
                                    </g>
                                </g>
                            </g>
                        </g>
                        <g id="Group-3" transform="translate(281.117038, 316.163077) scale(-1, 1) translate(-281.117038, -316.163077) translate(0.117038, 112.663077)">
                            <g id="Humaaan" transform="translate(420.209534, 203.552926) scale(-1, 1) translate(-420.209534, -203.552926) translate(279.209534, 1.052926)">
                                <g id="Head/Front/Chongo" transform="translate(120.079505, 57.511022) rotate(-8.000000) translate(-120.079505, -57.511022) translate(56.356426, 8.928128)">
                                    <g id="Head" stroke-width="1" transform="translate(50.426471, 28.913462)" fill="#D4A181">
                                        <path d="M7.71550576,32.1686759 C3.41253141,27.1239756 0.500188374,20.9416258 0.986842606,14.0141253 C2.38902896,-5.94593265 30.2078191,-1.55497422 35.6191497,8.51914897 C41.0304803,18.5932722 40.3874735,44.1471211 33.3938109,45.9476479 C30.6047478,46.6656955 24.6632143,44.9067664 18.6161194,41.2663239 L22.4117647,68.0865385 L0,68.0865385 L7.71550576,32.1686759 Z"></path>
                                    </g>
                                    <path d="M77.1931167,26.4604587 C74.130697,25.5277664 69.6851395,25.2114605 67.8150256,25.4254388 C68.8788316,22.8797294 69.3009655,20.043503 68.9568245,17.2819358 C68.6223344,14.5985616 67.4218442,12.3137464 66.3115713,9.91953602 C65.7997921,8.81596175 65.2198137,7.71840233 64.3551005,6.87429357 C63.4742311,6.01432064 62.3591686,5.44666935 61.1899185,5.1758508 C59.9933602,4.89864149 58.7421854,4.92172347 57.5437684,5.17329449 C57.0136168,5.28456919 56.5379388,5.52666683 56.01801,5.66124905 C55.4855708,5.79913945 55.2272863,5.46629279 54.8408247,5.13179204 C53.9094852,4.32580238 52.5441448,3.92792017 51.3658872,3.78551864 C50.0439398,3.62582442 48.672237,3.82499108 47.4114829,4.25903757 C46.1843279,4.68158065 45.005427,5.36772446 44.1181952,6.36731705 C43.7231551,6.81226544 43.3645736,7.31871566 43.1315243,7.87787099 C43.0359454,8.10733745 43.0201467,8.24327302 42.7908862,8.32733052 C42.5788541,8.40514762 42.3308639,8.40740319 42.1120405,8.48146101 C39.9961525,9.19722794 38.187089,10.8301089 37.2020623,12.9266594 C36.627374,14.1497788 36.3551495,16.3032597 36.429711,18.716958 C36.5042725,21.1306563 38.686358,27.428684 40.7272555,29.7259049 C42.5489723,31.7763666 45.2266809,33.1294819 47.8108837,33.7217941 C46.0956118,35.6800031 44.953813,38.1269937 44.1094737,40.6156372 C43.1923601,43.3189355 42.6247491,46.1277944 42.4151477,48.9897344 C42.2160549,51.7088969 42.1976111,54.5844454 42.8358518,57.2455646 C43.4329157,59.7341329 44.7097545,61.7756476 46.8412983,63.0707948 C47.817675,63.6640843 48.8681843,64.1097846 49.9247701,64.5171402 C50.9660575,64.9185561 52.0104903,65.3088446 53.1012471,65.5341007 C55.1655926,65.9602526 57.5441973,65.8870971 59.134366,64.2459457 C59.7074815,63.6543102 60.3377871,62.910875 60.7559177,62.1881158 C60.906256,61.9281992 60.9969022,61.7582045 60.8142515,61.5041524 C60.5954282,61.1998762 60.2414934,60.9667257 59.9604044,60.7286881 C58.3574395,59.3715127 57.3651925,57.5596901 57.1150576,55.4065248 C56.8612769,53.2218568 57.4488329,50.4020207 59.5754441,49.4485921 C62.2005378,48.2716367 65.0914936,49.6225716 67.4247037,50.8818552 C68.4163073,47.3863262 70.4523437,44.2389817 73.6444765,42.6355735 C77.1760322,40.8617196 81.2284459,40.6541322 84.8576535,39.13215 C85.8033621,38.735546 86.7665851,38.2853346 87.4628737,37.4772397 C87.753828,37.139506 88.0951809,36.7013995 88.2113482,36.2547218 C88.3639741,35.6679734 87.9850901,35.176034 87.6924202,34.7186048 C86.1405688,32.2931924 80.2555364,27.393151 77.1931167,26.4604587 Z" id="hair" fill="#191847"></path>
                                </g>
                                <g id="Bottom/Standing/Jogging" transform="translate(0.000000, 181.029114)">
                                    <polygon id="Leg" fill="#BA8B72" points="121.766667 0 191.367007 115.910463 243.547238 213.90299 254.786396 213.90299 167.357688 4.74960049e-13"></polygon>
                                    <g id="Accessories/Shoe/Flat-Sneaker" transform="translate(234.166667, 185.677824)" fill="#E4E4E4">
                                        <path d="M2.45011055,23.6358495 C1.43965434,26.3287489 0.93442623,28.3493809 0.93442623,29.6977455 C0.93442623,31.3657853 1.21514114,33.7998701 1.77657097,37 C3.73133322,37 21.2991108,37 54.4799037,37 C55.8494765,32.5179192 55.0588796,30.098188 52.1081132,29.7408064 C49.1573467,29.3834248 46.7060949,29.0607379 44.7543577,28.7727455 L20.314647,17.9873098 C19.8093764,17.7643299 19.2190127,17.9931718 18.9960328,18.4984425 C18.9932065,18.5048468 18.9904476,18.5112806 18.9877564,18.5177428 L17.4393958,22.2357929 C14.7077579,23.4974532 12.4880184,24.1282834 10.7801775,24.1282834 C9.41379932,24.1282834 7.53477429,23.5903609 5.14310236,22.514516 L5.14310412,22.5145121 C4.13575707,22.0613775 2.95180279,22.5106555 2.49866821,23.5180025 C2.4812344,23.556759 2.46504029,23.5960613 2.45011055,23.6358495 Z" id="shoe"></path>
                                    </g>
                                    <path d="M229.05533,198.21144 L250.729849,191.68006 C241.233652,163.401034 229.594713,132.281002 215.813034,98.3199656 C202.031354,64.358929 187.230343,31.5856071 171.41,2.84217094e-14 L110.193282,2.84217094e-14 C127.782101,39.9543427 146.428608,76.2579918 166.132803,108.910947 C185.836998,141.563903 206.811174,171.330734 229.05533,198.21144 Z" id="Pant" fill="#69A1AC"></path>
                                    <path d="M117.192575,2.84217094e-14 C110.62361,40.7317327 97.9538753,92.7712363 96.758194,94.3771908 C95.9610731,95.4478272 67.2645168,105.026654 10.668525,123.113672 L13.0963189,132.986319 C80.5869063,123.286134 116.14869,115.760332 119.78167,110.408912 C125.231141,102.381782 152.441082,38.9672784 162.98,2.84217094e-14 L117.192575,2.84217094e-14 Z" id="Leg" fill="#D4A181"></path>
                                    <path d="M30.5629723,114.579525 L34.8392669,130.480136 C85.318294,134.890387 116.247909,131.703703 127.628111,120.920086 C139.008314,110.136468 151.978386,69.8297731 166.538327,-1.13686838e-13 L108.16453,-1.13686838e-13 C98.9396942,57.1811881 93.7824107,86.9719836 92.6926793,89.3723865 C91.602948,91.7727895 70.8930456,100.175169 30.5629723,114.579525 Z" id="Pant" fill="#89C5CC"></path>
                                    <g id="Accessories/Shoe/Flat-Sneaker" transform="translate(22.948333, 143.690377) rotate(80.000000) translate(-22.948333, -143.690377) translate(-5.620000, 125.029289)" fill="#E4E4E4">
                                        <path d="M2.45011055,23.6358495 C1.43965434,26.3287489 0.93442623,28.3493809 0.93442623,29.6977455 C0.93442623,31.3657853 1.21514114,33.7998701 1.77657097,37 C3.73133322,37 21.2991108,37 54.4799037,37 C55.8494765,32.5179192 55.0588796,30.098188 52.1081132,29.7408064 C49.1573467,29.3834248 46.7060949,29.0607379 44.7543577,28.7727455 L20.314647,17.9873098 C19.8093764,17.7643299 19.2190127,17.9931718 18.9960328,18.4984425 C18.9932065,18.5048468 18.9904476,18.5112806 18.9877564,18.5177428 L17.4393958,22.2357929 C14.7077579,23.4974532 12.4880184,24.1282834 10.7801775,24.1282834 C9.41379932,24.1282834 7.53477429,23.5903609 5.14310236,22.514516 L5.14310412,22.5145121 C4.13575707,22.0613775 2.95180279,22.5106555 2.49866821,23.5180025 C2.4812344,23.556759 2.46504029,23.5960613 2.45011055,23.6358495 Z" id="shoe"></path>
                                    </g>
                                </g>
                                <g id="Body/Pointing-Forward" transform="translate(136.137906, 171.772480) rotate(-8.000000) translate(-136.137906, -171.772480) translate(16.188581, 84.416701)">
                                    <path d="M148.723162,39.9601108 L181.263582,22.1696193 C186.674855,15.7551679 192.006466,10.7734476 197.258415,7.22445845 C198.863241,6.55566389 201.669677,6.15086165 199.045126,10.8008755 C196.420576,15.4508894 193.869445,20.4598315 195.20655,21.8924002 C196.543655,23.3249688 199.877846,21.3237336 201.472992,23.7039586 C202.536423,25.2907752 196.840221,27.7974988 184.384386,31.2241293 L160.739805,52.8346919 L148.723162,39.9601108 Z M199.6875,54.9704382 L213.981115,47.1322788 C215.986712,39.5143549 218.384158,35.6815198 221.173454,35.6337735 C223.316214,34.6385462 219.584613,44.2645045 223.646607,43.4297431 C227.708601,42.5949817 237.622768,35.2346018 239.331029,36.729037 C241.85829,38.9399576 239.604829,45.7287652 236.949716,49.1058334 C231.987313,55.4175697 227.878658,57.5759931 217.723479,60.4024615 C212.413827,61.8802851 206.673154,64.8424552 200.50146,69.2889719 L199.6875,54.9704382 Z" id="Skin" fill="#D4A181"></path>
                                    <path d="M133.928244,32.5139532 C145.204471,34.1782406 160.592197,34.1824788 178.217398,26.5701341 L182.289998,41.569651 C169.507808,50.7650263 152.548075,57.2973677 139.024511,54.7650918 C128.367198,52.7695188 124.943299,38.9776293 133.928244,32.5139532 Z" id="Sleeve" fill="#2026A2" transform="translate(155.530191, 40.942333) rotate(-9.000000) translate(-155.530191, -40.942333) "></path>
                                    <path d="M148.222751,58.7337753 C160.322866,61.7460873 180.614012,58.1937391 209.096188,48.0767307 C216.160944,62.6663946 219.426804,73.0677061 218.893767,79.2806651 C194.460257,92.0210354 173.518629,97.7013156 156.265525,98.0763006 C156.813805,108.2954 155.567736,118.019108 151.381812,126.903979 C142.776263,145.169767 92.3859917,128.253611 75.4432383,131.583123 C64.833188,97.1870643 85.3480414,83.208645 85.3645479,61.2000415 C85.3826243,37.0982754 104.769759,-1.42108547e-13 107.622188,-1.42108547e-13 L133.634765,-1.42108547e-13 C135.070032,18.4068362 142.294125,38.6927646 148.222751,58.7337753 Z" id="Clothes" fill="#1F28CF"></path>
                                </g>
                            </g>
                            <g id="Humaaan">
                                <g id="Head/Front/Airy" transform="translate(154.627433, 56.813433) rotate(7.000000) translate(-154.627433, -56.813433) translate(90.904354, 8.230539)">
                                    <g id="Head" stroke-width="1" transform="translate(50.426471, 28.913462)" fill="#D4A181">
                                        <path d="M7.71550576,32.1686759 C3.41253141,27.1239756 0.500188374,20.9416258 0.986842606,14.0141253 C2.38902896,-5.94593265 30.2078191,-1.55497422 35.6191497,8.51914897 C41.0304803,18.5932722 40.3874735,44.1471211 33.3938109,45.9476479 C30.6047478,46.6656955 24.6632143,44.9067664 18.6161194,41.2663239 L22.4117647,68.0865385 L0,68.0865385 L7.71550576,32.1686759 Z"></path>
                                    </g>
                                    <path d="M73.2714828,25.821826 C70.317677,25.3380208 62.3644249,25.0053914 60.8977032,25.0056061 C59.9603987,25.0056061 58.9446462,25.2194854 58.3895082,24.3598883 C57.9348952,23.6559765 58.1014366,22.465468 57.96576,21.6486038 C57.8082209,20.6996757 57.584451,19.7629877 57.358109,18.8286618 C56.7140203,16.1699881 55.7400639,13.6405869 54.3772966,11.2657971 C51.8202323,6.81040897 48.0742297,3.32048375 43.3450541,1.2897046 C38.1226844,-0.952591687 32.2131439,-1.46603072 26.5957475,-1.01121522 C20.584396,-0.524618455 15.1427576,1.45741513 9.46706094,3.32263113 C4.05843071,5.10001921 -1.60654897,5.79963627 -7.26338377,4.93166446 C-12.962872,4.05725051 -17.2693711,0.971892059 -22.0767805,-1.95649277 C-26.9982182,-4.95445278 -32.6224735,-6.91522728 -38.4404912,-6.4644918 C-43.8714127,-6.04360493 -48.8768713,-3.8038855 -53.3677019,-0.811938166 C-57.5693893,1.98738901 -61.0363226,5.35534293 -62.9936663,10.095474 C-65.0993326,15.1944325 -65.0974035,20.7913689 -61.634757,25.2976501 C-56.6157951,31.8295566 -47.2982646,33.5186873 -39.5464804,33.350762 C-35.0627229,33.2539151 -30.6591283,32.4364068 -26.4259331,30.9493447 C-20.7804583,28.9660227 -15.9018883,25.604511 -10.6203611,22.8771211 C-8.14174498,21.5972814 -5.57975095,20.5461379 -2.89429767,19.788971 C-0.288364145,19.0539222 2.27834534,18.7167832 4.63778901,20.2890963 C7.13376663,21.9524584 9.37039406,23.5864014 12.2258182,24.6276669 C14.9650705,25.626629 17.8665775,26.1853778 20.7850173,26.1628303 C26.463286,26.1190237 32.0607489,24.351943 37.5756913,23.1683061 C42.0729521,22.2032726 46.8848626,21.2414602 51.4697881,22.1691292 C53.382978,22.5563022 56.1775298,23.3555578 56.8685587,25.3414567 C45.2383104,27.44675 40.6705428,41.8127355 43.9492864,52.3587433 C45.7188691,58.0508087 56.3560742,64.7047731 60.4919594,61.7123683 C63.1121618,59.8165938 61.5214296,57.3277852 60.4919594,55.6848232 C58.5204694,52.5384791 57.8459445,48.4968915 61.4939943,46.3063471 C64.6407051,44.4170804 67.9492547,48.9035874 68.0118417,48.8986484 C68.8766995,48.8305764 76.3498229,44.6093166 81.4986689,38.449428 C86.5780245,38.7501621 87.3486363,35.4050229 86.1357856,32.6693276 C84.922935,29.9336324 77.3527116,26.4907355 73.2714828,25.821826 Z" id="hair" fill="#191847"></path>
                                </g>
                                <g id="Bottom/Standing/Sprint" transform="translate(0.000000, 182.082040)">
                                    <path d="M194.052893,-9.18758948 C176.212139,5.36642274 183.241352,133.268122 182.051686,134.876081 C181.522946,135.59073 153.218768,141.628517 97.139154,152.989441 L99.5786236,162.892134 C165.195901,159.750138 199.912475,155.743918 203.728344,150.873472 C209.191577,143.900389 215.888645,104.859005 223.819549,33.7493194 L194.052893,-9.18758948 Z" id="Leg" fill="#D4A181" transform="translate(160.479352, 76.852272) rotate(-55.000000) translate(-160.479352, -76.852272) "></path>
                                    <path d="M106.622113,142.584455 L110.916265,158.534121 C159.843525,164.247323 192.078727,157.344106 203.409865,146.553096 C210.963957,139.359089 217.678647,100.423877 223.553933,29.7474585 L191.71162,-15.7280773 C149.238168,16.3245602 174.780855,121.550302 173.69831,123.954966 C172.615765,126.35963 146.821621,128.215757 106.622113,142.584455 Z" id="Pant" fill="#2F3676" transform="translate(165.088023, 72.430964) rotate(-55.000000) translate(-165.088023, -72.430964) "></path>
                                    <g id="Accessories/Shoe/Flat-Sneaker" transform="translate(209.236267, 174.741607) rotate(20.000000) translate(-209.236267, -174.741607) translate(180.667934, 156.080519)" fill="#E4E4E4">
                                        <path d="M2.45011055,23.6358495 C1.43965434,26.3287489 0.93442623,28.3493809 0.93442623,29.6977455 C0.93442623,31.3657853 1.21514114,33.7998701 1.77657097,37 C3.73133322,37 21.2991108,37 54.4799037,37 C55.8494765,32.5179192 55.0588796,30.098188 52.1081132,29.7408064 C49.1573467,29.3834248 46.7060949,29.0607379 44.7543577,28.7727455 L20.314647,17.9873098 C19.8093764,17.7643299 19.2190127,17.9931718 18.9960328,18.4984425 C18.9932065,18.5048468 18.9904476,18.5112806 18.9877564,18.5177428 L17.4393958,22.2357929 C14.7077579,23.4974532 12.4880184,24.1282834 10.7801775,24.1282834 C9.41379932,24.1282834 7.53477429,23.5903609 5.14310236,22.514516 L5.14310412,22.5145121 C4.13575707,22.0613775 2.95180279,22.5106555 2.49866821,23.5180025 C2.4812344,23.556759 2.46504029,23.5960613 2.45011055,23.6358495 Z" id="shoe"></path>
                                    </g>
                                    <polygon id="Leg" fill="#BA8B72" points="121.766667 0 73.2979486 115.910463 25.6607426 213.90299 36.8999013 213.90299 159.864354 0"></polygon>
                                    <g id="Accessories/Shoe/Flat-Sneaker" transform="translate(22.480000, 185.677824)" fill="#E4E4E4">
                                        <path d="M2.45011055,23.6358495 C1.43965434,26.3287489 0.93442623,28.3493809 0.93442623,29.6977455 C0.93442623,31.3657853 1.21514114,33.7998701 1.77657097,37 C3.73133322,37 21.2991108,37 54.4799037,37 C55.8494765,32.5179192 55.0588796,30.098188 52.1081132,29.7408064 C49.1573467,29.3834248 46.7060949,29.0607379 44.7543577,28.7727455 L20.314647,17.9873098 C19.8093764,17.7643299 19.2190127,17.9931718 18.9960328,18.4984425 C18.9932065,18.5048468 18.9904476,18.5112806 18.9877564,18.5177428 L17.4393958,22.2357929 C14.7077579,23.4974532 12.4880184,24.1282834 10.7801775,24.1282834 C9.41379932,24.1282834 7.53477429,23.5903609 5.14310236,22.514516 L5.14310412,22.5145121 C4.13575707,22.0613775 2.95180279,22.5106555 2.49866821,23.5180025 C2.4812344,23.556759 2.46504029,23.5960613 2.45011055,23.6358495 Z" id="shoe"></path>
                                    </g>
                                    <path d="M29.9626074,193.546168 L54.9361425,198.21144 C74.2456097,169.932414 155.056519,53.9789126 163.916667,2.84217094e-14 L108.319948,2.84217094e-14 C78.7314048,39.0212883 48.3685175,164.799353 29.9626074,193.546168 Z" id="Pant" fill="#5C63AB"></path>
                                </g>
                                <g id="Body/Hoodie" transform="translate(140.565615, 171.337747) rotate(7.000000) translate(-140.565615, -171.337747) translate(20.616290, 83.981967)">
                                    <path d="M178.857379,86.2941709 L208.762008,108.214651 C216.87276,110.399323 223.64903,113.117424 229.09082,116.368954 C230.376265,117.538184 231.929846,119.906067 226.598794,119.496838 C221.267742,119.087608 215.641837,118.89649 214.906256,120.711588 C214.170674,122.526686 217.396738,124.697345 215.909807,127.146387 C214.91852,128.779082 210.235281,124.68516 201.860091,114.864619 L172.246663,102.606568 L178.857379,86.2941709 Z M64.0386826,87.0507005 L83.6299874,87.1276066 C71.5332606,126.108312 65.0028257,146.79123 64.0386826,149.176361 C61.8693605,154.542905 66.4599377,162.716059 68.4230507,167.108251 C62.0292571,169.964183 62.7105226,159.3875 54.644924,163.133215 C47.2830196,166.552129 41.6828373,172.746973 33.1772205,167.508102 C32.1315049,166.864013 30.985571,164.438904 33.7542922,162.543809 C40.6521866,157.822437 50.5924702,149.559185 51.9355591,146.839272 C53.7671007,143.130185 57.8014752,123.200661 64.0386826,87.0507005 Z" id="Skin" fill="#D4A181"></path>
                                    <path d="M115.069586,8.97232095 L123.024444,6.88306756 C155.248671,30.0997681 171.898612,78.6612888 210.927236,101.743413 L203.044065,113.454987 C138.638584,111.154457 117.548739,51.9893831 115.069586,8.97232095 Z" id="Coat-Back" fill="#E87613" transform="translate(162.998411, 60.169027) rotate(5.000000) translate(-162.998411, -60.169027) "></path>
                                    <path d="M84.375,106.684492 C116.879771,106.684492 140.789599,106.684492 156.104485,106.684492 C159.382157,106.684492 158.764542,101.960088 158.290735,99.5761282 C152.822426,72.0623481 131.476223,42.4038246 131.476223,3.23865135 L110.786063,0 C93.6726422,27.4744449 87.7545247,61.3010494 84.375,106.684492 Z" id="Shirt" fill="#DDE3E9"></path>
                                    <path d="M84.9514137,27.0061109 C81.9464276,26.1438661 79.5667897,24.1328421 77.8125,20.973039 C70.2502097,7.35194258 72.9813067,-0.147479879 81.0629967,-2.61258239 C89.1446867,-5.0776849 96.3518618,-1.9095836e-14 109.228154,-6.21724894e-15 C109.928517,-5.77315973e-15 110.569971,0.043827238 111.152515,0.131481714 L117.629613,0.500425081 C136.213112,63.3698343 141.33833,105.315325 133.005267,126.336898 L76.5485757,126.336898 C73.2035767,134.122874 70.002695,140.673676 66.9459306,145.989305 L51.5625,145.989305 C50.114703,99.2606465 61.2443409,59.5995819 84.9514137,27.0061109 Z" id="Coat-Front" fill="#FF9B21"></path>
                                    <path d="M88.8424017,94.0485868 C90.6179537,108.878096 93.5038198,119.640867 97.5,126.336898 L76.5485757,126.336898 C80.4504235,117.254775 84.5483655,106.492005 88.8424017,94.0485868 Z" id="Shade" fill-opacity="0.1" fill="#000000"></path>
                                </g>
                            </g>
                        </g>
                        <g transform="translate(240.709673, 177.963622) rotate(-14.000000) translate(-240.709673, -177.963622) translate(187.709673, 141.963622)">
                            <path d="M53.5181607,57.4968407 C53.5160549,57.5021053 53.513949,57.5073699 53.5107902,57.5136875 C53.513949,57.5084228 53.5181607,57.4873643 53.5181607,57.4968407" id="Fill-35" fill="#C5CFD6"></path>
                            <path d="M53.5132575,57.5048415 C53.5132575,57.5058944 53.5122045,57.5080003 53.5122045,57.5101061 C53.5122045,57.5048415 53.5216809,57.4890476 53.5132575,57.5048415" id="Fill-37" fill="#C5CFD6"></path>
                            <path d="M53.5498238,57.4157674 C53.5424533,57.4368259 53.532977,57.4568315 53.5245536,57.47789 C53.5287653,57.4673608 53.532977,57.4589374 53.5371887,57.4484081 C53.4276844,57.7221689 53.4971775,57.5442244 53.5498238,57.4157674" id="Fill-39" fill="#C5CFD6"></path>
                            <path d="M53.5262552,57.479179 C53.5220435,57.4886553 53.5178318,57.4991846 53.5136201,57.5086609 C53.4830852,57.5676248 53.5262552,57.479179 53.5262552,57.479179" id="Fill-41" fill="#C5CFD6"></path>
                            <polygon id="Fill-43" fill="#C5CFD6" points="53.5144755 57.5045808 53.5144755 57.5045808 53.5144755 57.5035279"></polygon>
                            <path d="M53.513949,57.5051073 C53.513949,57.5040543 53.513949,57.5040543 53.515002,57.5030014 C53.513949,57.5040543 53.513949,57.5040543 53.513949,57.5051073" id="Fill-45" fill="#C5CFD6"></path>
                            <path d="M53.5089538,57.5126625 C53.5026362,57.5252976 53.5384357,57.4642279 53.5089538,57.5126625" id="Fill-47" fill="#C5CFD6"></path>
                            <path d="M53.5134226,57.5051073 L53.5155284,57.5030014 C53.5144755,57.5040543 53.5144755,57.5051073 53.5134226,57.5051073" id="Fill-49" fill="#C5CFD6"></path>
                            <rect id="Photo-Background" fill="#00A3FD" x="0.604943469" y="0.861764041" width="105.292595" height="69.493113" rx="4"></rect>
                            <g id="icons8-night_landscape" transform="translate(9.537013, 21.155991)" fill="#000000" fill-opacity="0.2">
                                <polygon id="Mountains" points="30.8628475 0 0.496158379 49.4875199 61.2295366 49.4875199"></polygon>
                                <polygon id="Mountains" points="62.1726015 13.2555857 35.3266879 49.4875199 89.018515 49.4875199"></polygon>
                            </g>
                            <circle id="Sun" fill="#FFFFFF" cx="83.1986041" cy="24.8937801" r="10.0027966"></circle>
                        </g>
                    </g>
                </g>
            </g>
        </g>
    </g>
</svg>