<?xml version="1.0" encoding="UTF-8"?>
<svg width="24px" height="21px" viewBox="0 0 24 21" version="1.1" xmlns="http://www.w3.org/2000/svg" xmlns:xlink="http://www.w3.org/1999/xlink">
    <!-- Generator: Sketch 55.2 (78181) - https://sketchapp.com -->
    <title>Click Rate-icon</title>
    <desc>Created with Sketch.</desc>
    <g id="页面1" stroke="none" stroke-width="1" fill="none" fill-rule="evenodd">
        <g id="Dashboard" transform="translate(-859.000000, -286.000000)" fill="#358ED0" fill-rule="nonzero">
            <g id="main" transform="translate(248.000000, 111.000000)">
                <g id="表单#2" transform="translate(24.000000, 72.000000)">
                    <g id="图表" transform="translate(0.000000, 48.000000)">
                        <path d="M609.748437,55.0039063 C610.439844,55.0039063 611,55.5757813 611,56.2765625 L611,74.7070313 C611,75.4171875 610.439844,75.9960938 609.748437,75.9960938 L588.251563,75.9960938 C587.560156,75.9960938 587,75.4171875 587,74.7070313 L587,56.2765625 C587,55.5757813 587.560156,55.0039063 588.251562,55.0039063 L609.748437,55.0039063 Z M609.490625,56.5109375 L588.509375,56.5109375 L588.509375,70.2914063 L609.490625,70.2914063 L609.490625,56.5109375 Z M588.509375,71.8007812 L588.509375,74.4867187 L609.492969,74.4867187 L609.492969,71.8007812 L588.509375,71.8007812 Z M596.571875,62.0935135 L592.235937,66.429451 L591.169531,65.3630448 L596.0375,60.495076 C596.332812,60.1997635 596.808594,60.1997635 597.103906,60.495076 L601.392969,64.7841385 L605.766406,60.4130448 L606.832812,61.479451 L601.929687,66.382576 C601.782031,66.5302323 601.5875,66.6028885 601.395312,66.6028885 C601.200781,66.6028885 601.008594,66.5302323 600.860937,66.382576 L596.571875,62.0935135 Z" id="Click-Rate-icon"></path>
                    </g>
                </g>
            </g>
        </g>
    </g>
</svg>