<?xml version="1.0" encoding="UTF-8"?>
<svg width="24px" height="29px" viewBox="0 0 24 29" version="1.1" xmlns="http://www.w3.org/2000/svg" xmlns:xlink="http://www.w3.org/1999/xlink">
    <!-- Generator: Sketch 55.2 (78181) - https://sketchapp.com -->
    <title>Clicks-icon</title>
    <desc>Created with Sketch.</desc>
    <g id="页面1" stroke="none" stroke-width="1" fill="none" fill-rule="evenodd">
        <g id="Dashboard" transform="translate(-573.000000, -282.000000)" fill="#9935D0" fill-rule="nonzero">
            <g id="main" transform="translate(248.000000, 111.000000)">
                <g id="表单#2" transform="translate(24.000000, 72.000000)">
                    <g id="图表" transform="translate(0.000000, 48.000000)">
                        <path d="M322.347811,62.1718471 L322.276053,62.1718471 C321.737865,62.1718471 321.297268,62.3268451 320.872459,62.5894807 C320.500751,61.5059294 319.556411,60.7237633 318.337954,60.7237633 C317.816984,60.723667 317.306223,60.8682502 316.862602,61.141397 C316.490893,60.0578457 315.546553,59.2771147 314.326661,59.2771147 C313.853056,59.2771147 313.411024,59.3962336 313.020659,59.6043328 L313.020659,56.817238 C313.020659,55.2973958 311.87109,54.0660223 310.341202,54.0660223 C308.811313,54.0660223 307.571329,55.298831 307.571329,56.817238 L307.571329,67.4948825 L305.887877,65.8200423 C304.805761,64.745102 302.891248,64.8986649 301.969871,65.8200423 C301.048493,66.7414196 300.444288,68.5956558 301.763207,69.9160096 L309.501629,77.6027655 C309.660932,77.7606339 309.836023,77.8926693 310.021159,78.0046124 C311.431929,79.1556165 313.049362,79.837321 316.467931,79.837321 C324.276676,79.837321 325,75.6236699 325,70.4269292 L325,64.9259331 C325,63.4046557 323.88057,62.1732822 322.347811,62.1732822 L322.347811,62.1718471 Z M323.539,70.4240589 C323.539,74.8214114 323.520343,78.3863669 316.466495,78.3863669 C313.478477,78.3863669 311.684518,77.7218844 310.325415,76.371392 L303.000321,69.095094 C302.351625,68.4463984 302.515234,67.6168717 303.044811,67.0858598 C303.575823,66.5562831 304.548866,66.5376259 305.062656,67.0471103 C306.384538,68.3616327 307.706806,69.6757676 309.029459,70.9895148 L309.029459,57.1057066 C309.029459,56.3866878 309.617877,55.8025747 310.342637,55.8025747 C311.067396,55.8025747 311.562529,56.3866878 311.562529,57.1057066 L311.562529,65.9362908 L311.576881,65.9362908 C311.534298,66.1501664 311.589887,66.3718653 311.728342,66.5403472 C311.866798,66.7088291 312.073521,66.806329 312.291594,66.8060022 C312.510101,66.8072897 312.717572,66.710118 312.856471,66.5414349 C312.99537,66.3727519 313.05093,66.1504911 313.007742,65.9362908 L313.022094,65.9362908 L313.022094,62.316799 C313.022094,61.5992153 313.54593,61.0151022 314.270689,61.0151022 C314.270689,61.0151022 315.555164,60.9964451 315.555164,62.316799 L315.555164,67.095906 L315.569516,67.095906 C315.526933,67.3097816 315.582522,67.5314804 315.720978,67.6999623 C315.859433,67.8684443 316.066156,67.9659441 316.284229,67.9656173 C316.503043,67.9669945 316.710813,67.8696314 316.849771,67.7005982 C316.988729,67.531565 317.044059,67.3088851 317.000378,67.0944708 L317.014729,67.0944708 L317.014729,63.7648827 C317.014729,63.0458639 317.529954,62.4617508 318.254714,62.4617508 C318.254714,62.4617508 319.566457,62.5449906 319.566457,63.7648827 L319.566457,67.9641822 L319.580808,67.9641822 C319.538226,68.1780578 319.593815,68.3997566 319.73227,68.5682385 C319.870726,68.7367205 320.077448,68.8342203 320.295522,68.8338935 C320.697369,68.8338935 321.005929,68.5095457 321.005929,68.1091341 C321.005806,68.060535 321.001484,68.0120374 320.993013,67.9641822 L321.007365,67.9641822 L321.007365,65.0981531 C321.007365,64.3776992 321.546988,63.7950212 322.271747,63.7950212 C322.271747,63.7950212 323.543305,63.7433552 323.543305,65.0981531 L323.543305,70.4240589 L323.540435,70.4240589 L323.539,70.4240589 Z M306.490648,60.9175109 L306.490648,58.4849023 C305.748343,56.8267483 306.16355,54.8789042 307.517515,53.6675957 C308.871481,52.4562873 310.853352,52.2596158 312.418976,53.1811981 C313.9846,54.1027803 314.774528,55.9310325 314.372586,57.7027362 C314.896422,57.7242637 315.370028,57.940974 315.715903,58.2911548 C315.849373,57.8132441 315.928308,57.3109355 315.928308,56.7885346 C315.928308,53.6814604 313.409526,51.162679 310.302452,51.162679 C307.195378,51.162679 304.676596,53.6814604 304.676596,56.7885346 C304.676596,58.421755 305.375523,59.8884959 306.489213,60.9175109 L306.490648,60.9175109 Z" id="Clicks-icon"></path>
                    </g>
                </g>
            </g>
        </g>
    </g>
</svg>