<?xml version="1.0" encoding="UTF-8"?>
<svg width="22px" height="23px" viewBox="0 0 22 23" version="1.1" xmlns="http://www.w3.org/2000/svg" xmlns:xlink="http://www.w3.org/1999/xlink">
    <!-- Generator: Sketch 55.2 (78181) - https://sketchapp.com -->
    <title>Cost Per Click-icon</title>
    <desc>Created with Sketch.</desc>
    <g id="页面1" stroke="none" stroke-width="1" fill="none" fill-rule="evenodd">
        <g id="Dashboard" transform="translate(-1141.000000, -285.000000)" fill="#2A9401" fill-rule="nonzero">
            <g id="main" transform="translate(248.000000, 111.000000)">
                <g id="表单#2" transform="translate(24.000000, 72.000000)">
                    <g id="图表" transform="translate(0.000000, 48.000000)">
                        <path d="M873.021011,67.0598766 L887.657677,67.0598766 L887.657677,68.40193 L873.021011,68.40193 L873.021011,67.0598766 Z M872.985342,71.2084505 L887.621883,71.2084505 L887.655793,72.6475885 L873.021011,72.6475885 L872.985342,71.2084505 Z M880.889637,62.7937212 L887.657677,62.7937212 L887.657677,64.1578792 L880.889637,64.1578792 L880.889637,62.7937212 Z M882.343821,58.5241998 L887.657677,58.5241998 L887.657677,59.9137782 L882.343821,59.9137782 L882.343821,58.5241998 Z M888.878959,76.8608846 L871.121066,76.8608846 C869.950776,76.8608846 869,75.8624077 869,74.6376345 L869,56.3623906 C869,55.1375923 869.950801,54.1391154 871.121066,54.1391154 L888.878959,54.1391154 C890.049224,54.1391154 891,55.1375923 891,56.3623655 L891,74.6360018 C891,75.8624077 890.047466,76.8608846 888.878959,76.8608846 Z M870.847245,55.4845599 C870.60741,55.4845599 870.406659,55.7363519 870.406659,56.0323532 L870.406659,74.9676468 C870.406659,75.2654065 870.609118,75.5154401 870.847245,75.5154401 L889.154463,75.5154401 C889.394349,75.5154401 889.594999,75.2636481 889.594999,74.9676468 L889.594999,56.0323532 C889.594999,55.734694 889.392565,55.4845599 889.154463,55.4845599 L870.847245,55.4845599 Z M879.018554,63.5470786 C879.018554,64.2206925 878.817854,64.7835823 878.416428,65.2327838 C878.01327,65.6817844 877.434982,65.9487483 876.674632,66.0287018 L876.674632,66.6016996 L875.708509,66.6016996 L875.708509,66.0338512 C874.444676,65.902856 873.660564,65.1680524 873.359513,63.8295156 L874.854591,63.4382132 C874.992394,64.2801992 875.449935,64.7020212 876.229048,64.7020212 C876.592971,64.7020212 876.861743,64.6118443 877.033557,64.4315407 C877.205345,64.2496546 877.292106,64.0335817 877.292106,63.7783986 C877.292106,63.5130424 877.205345,63.3140755 877.033557,63.1796391 C876.863451,63.0434945 876.48074,62.871857 875.89052,62.6625913 C875.359758,62.4772137 874.943035,62.2951267 874.643743,62.1131653 C874.346059,61.9345698 874.102807,61.6828029 873.915747,61.3580153 C873.728636,61.0331022 873.636801,60.6537814 873.636801,60.2251271 C873.636801,59.6604539 873.805098,59.1501129 874.136894,58.6994042 C874.47193,58.2469623 874.994026,57.9696746 875.710192,57.8693246 L875.710192,57.2511196 L876.676315,57.2511196 L876.676315,57.8693246 C877.756429,57.998687 878.457297,58.6092524 878.77706,59.7029049 L877.441739,60.2506228 C877.181507,59.5005971 876.781815,59.1246172 876.235755,59.1246172 C875.963616,59.1246172 875.744178,59.208012 875.580905,59.3764092 C875.414291,59.5447311 875.330896,59.7472398 875.330896,59.985342 C875.330896,60.2284931 875.410774,60.4139963 875.570757,60.544916 C875.730613,60.674178 876.070723,60.8357931 876.594654,61.0263201 C877.167918,61.2355606 877.620385,61.4362608 877.945248,61.6199303 C878.271869,61.8070159 878.530393,62.0655147 878.727702,62.3937687 C878.919862,62.7220729 879.018554,63.106543 879.018554,63.5470786 Z" id="Cost-Per-Click-icon"></path>
                    </g>
                </g>
            </g>
        </g>
    </g>
</svg>