<?xml version="1.0" encoding="UTF-8"?>
<svg width="120px" height="54px" viewBox="0 0 120 54" version="1.1" xmlns="http://www.w3.org/2000/svg" xmlns:xlink="http://www.w3.org/1999/xlink">
    <!-- Generator: Sketch 55.2 (78181) - https://sketchapp.com -->
    <title>logo</title>
    <desc>Created with Sketch.</desc>
    <defs>
        <linearGradient x1="-0.401351312%" y1="0.973695267%" x2="87.0125556%" y2="93.995084%" id="linearGradient-1">
            <stop stop-color="#00EBF6" offset="0%"></stop>
            <stop stop-color="#0091FF" offset="100%"></stop>
        </linearGradient>
    </defs>
    <g id="页面1" stroke="none" stroke-width="1" fill="none" fill-rule="evenodd">
        <g id="登录页面-hover" transform="translate(-170.000000, -13.000000)">
            <g id="topbar">
                <g id="logo" transform="translate(170.000000, 13.000000)">
                    <path d="M1.96859846,0.241681055 L1.96859846,8.46706229 L17.3328848,8.46706229 C22.6554323,8.46706229 27.4694576,13.1199669 27.4694576,19.0877229 L27.4694576,19.0877229 C27.4694576,25.0554789 22.6554323,29.7083836 17.3328848,29.7083836 L17.3328848,29.7083836 L8.7968745,29.7083836 L8.7968745,37.9337648 L17.3328848,37.9337648 C27.741379,37.9337648 36.6625307,30.1411838 36.6625307,19.0877229 L36.6625307,19.0877229 L36.6625307,19.0877229 C36.6625307,8.03426208 27.741379,0.241681055 17.3328848,0.241681055 L17.3328848,0.241681055 L1.96859846,0.241681055 Z M11.7548667,14.4911864 L11.7548667,23.6840176 L15.5697502,23.6840176 C18.1084899,23.6840176 20.1662867,21.6264627 20.1662867,19.0877229 L20.1662867,19.0877229 C20.1662867,16.5492251 18.1084899,14.4911864 15.5697502,14.4911864 L15.5697502,14.4911864 L11.7548667,14.4911864 Z M1.2425876,19.0877229 C1.2425876,21.6264627 3.30038445,23.6840176 5.8393661,23.6840176 L5.8393661,23.6840176 L5.8393661,14.4911864 C3.30038445,14.4911864 1.2425876,16.5492251 1.2425876,19.0877229 L1.2425876,19.0877229 Z" id="形状结合" fill="url(#linearGradient-1)"></path>
                    <path d="M2.05343047,50.2818834 C3.872858,50.2818834 4.76658516,49.1460734 4.76658516,47.2005294 C4.76658516,45.2443276 3.872858,44.1612987 2.05343047,44.1612987 L1.18076502,44.1612987 L1.18076502,50.2818834 L2.05343047,50.2818834 Z M0.202537252,43.3723726 L2.13742357,43.3723726 C4.50369438,43.3723726 5.77627862,44.7502655 5.77627862,47.2005294 C5.77627862,49.6403893 4.50369438,51.0809597 2.179547,51.0809597 L0.202537252,51.0809597 L0.202537252,43.3723726 Z M10.8047754,47.7683582 C10.8047754,46.6114865 10.2789938,45.9910541 9.38501289,45.9910541 C8.57527883,45.9910541 7.8601956,46.6429522 7.74422929,47.7683582 L10.8047754,47.7683582 Z M6.79797473,48.2309547 C6.79797473,46.3800614 8.04949726,45.2234435 9.37435516,45.2234435 C10.8258371,45.2234435 11.6459751,46.2750066 11.6459751,47.9051325 C11.6459751,48.1154959 11.6249134,48.3152015 11.6038517,48.4519758 L7.75488703,48.4519758 C7.81781841,49.6717789 8.56487485,50.4500472 9.64790368,50.4500472 C10.2054047,50.4500472 10.6575971,50.2818073 11.0780701,49.9978548 L11.4252078,50.6286912 C10.9204879,50.9550208 10.3104595,51.2179116 9.53219113,51.2179116 C8.01803157,51.2179116 6.79797473,50.1135673 6.79797473,48.2309547 Z M12.5679199,48.2310054 C12.5679199,46.3275848 13.8613121,45.2232405 15.3229443,45.2232405 C16.069747,45.2232405 16.5851245,45.5389124 16.9951936,45.896454 L16.5008777,46.5379482 C16.1643978,46.2329339 15.8175139,46.0228243 15.35441,46.0228243 C14.3241623,46.0228243 13.5669556,46.9165515 13.5669556,48.2310054 C13.5669556,49.5457131 14.2820389,50.4183785 15.333602,50.4183785 C15.8593836,50.4183785 16.3222338,50.1765495 16.6797754,49.8507273 L17.0898444,50.4922214 C16.5851245,50.9548178 15.9332265,51.2179624 15.2493552,51.2179624 C13.7351956,51.2179624 12.5679199,50.1240221 12.5679199,48.2310054 Z M21.606237,47.7683582 C21.606237,46.6114865 21.0804554,45.9910541 20.1864745,45.9910541 C19.3767405,45.9910541 18.6616572,46.6429522 18.5459447,47.7683582 L21.606237,47.7683582 Z M17.5996901,48.2309547 C17.5996901,46.3800614 18.8512126,45.2234435 20.1760705,45.2234435 C21.6272987,45.2234435 22.4474368,46.2750066 22.4474368,47.9051325 C22.4474368,48.1154959 22.4263751,48.3152015 22.4053133,48.4519758 L18.5563487,48.4519758 C18.6195338,49.6717789 19.3663365,50.4500472 20.4493653,50.4500472 C21.0068663,50.4500472 21.4590588,50.2818073 21.8797855,49.9978548 L22.2266694,50.6286912 C21.7219496,50.9550208 21.1121749,51.2179116 20.3336528,51.2179116 C18.8194932,51.2179116 17.5996901,50.1135673 17.5996901,48.2309547 Z M23.7247409,45.370571 L24.5134132,45.370571 L24.5976601,46.1909628 L24.6291258,46.1909628 C25.1762228,45.6545235 25.7649357,45.2233927 26.5432041,45.2233927 C27.7421992,45.2233927 28.2887888,46.0016611 28.2887888,47.463547 L28.2887888,51.0810866 L27.3321302,51.0810866 L27.3321302,47.5896635 C27.3321302,46.5170387 27.0060543,46.0645925 26.2485939,46.0645925 C25.6598809,46.0645925 25.2602159,46.3592027 24.6816532,46.9377655 L24.6816532,51.0810866 L23.7247409,51.0810866 L23.7247409,45.370571 Z M30.0688842,49.3141865 L30.0688842,46.1488393 L29.2172805,46.1488393 L29.2172805,45.4233521 L30.1110076,45.370571 L30.2267202,43.7721646 L31.0257965,43.7721646 L31.0257965,45.370571 L32.5716755,45.370571 L32.5716755,46.1488393 L31.0257965,46.1488393 L31.0257965,49.3352482 C31.0257965,50.0399275 31.2468176,50.4395925 31.9093734,50.4395925 C32.1090791,50.4395925 32.3719699,50.3660034 32.5612715,50.2921605 L32.7505732,51.0074975 C32.4244973,51.1125523 32.0458939,51.2178609 31.69901,51.2178609 C30.4789532,51.2178609 30.0688842,50.4606542 30.0688842,49.3141865 Z M33.7324804,45.370571 L34.5211528,45.370571 L34.6053996,46.4119839 L34.6368653,46.4119839 C35.0367841,45.6862429 35.6150931,45.2233927 36.2563334,45.2233927 C36.5088202,45.2233927 36.6877179,45.2551122 36.8666156,45.349763 L36.6877179,46.1909628 C36.4984163,46.1173737 36.361642,46.0963119 36.1302169,46.0963119 C35.6572165,46.0963119 35.0682498,46.4330456 34.6893927,47.4107659 L34.6893927,51.0810866 L33.7324804,51.0810866 L33.7324804,45.370571 Z M40.9337847,49.6928406 L40.9337847,48.0944342 C39.0093024,48.3256055 38.3574043,48.7991134 38.3574043,49.5352584 C38.3574043,50.1871564 38.798939,50.4500472 39.366844,50.4500472 C39.9240913,50.4500472 40.3765375,50.1871564 40.9337847,49.6928406 Z M37.4212999,49.5981897 C37.4212999,48.3573249 38.5045825,47.7368925 40.9337847,47.4635978 C40.9337847,46.7271991 40.6919556,46.0227736 39.7558513,46.0227736 C39.0935492,46.0227736 38.4941785,46.327534 38.0419861,46.6325482 L37.663129,45.9699924 C38.1891643,45.6335125 38.9988984,45.2234435 39.9136873,45.2234435 C41.3019841,45.2234435 41.890697,46.1592941 41.890697,47.5686526 L41.890697,51.0811374 L41.1020247,51.0811374 L41.0180316,50.3975198 L40.9863121,50.3975198 C40.4397226,50.8497123 39.7979747,51.2179116 39.0935492,51.2179116 C38.1366369,51.2179116 37.4212999,50.6286912 37.4212999,49.5981897 Z M43.4847135,49.9453527 L43.4847135,42.7100198 L44.4416258,42.7100198 L44.4416258,50.0082841 C44.4416258,50.3028944 44.567996,50.4183532 44.7151743,50.4183532 C44.7677017,50.4183532 44.8098251,50.4183532 44.9148799,50.3975452 L45.0516542,51.1336901 C44.9148799,51.1862175 44.74664,51.217937 44.4944069,51.217937 C43.7790699,51.217937 43.4847135,50.7548331 43.4847135,49.9453527 Z M46.2174581,51.0810359 L46.2174581,45.3705202 L47.1743704,45.3705202 L47.1743704,51.0810359 L46.2174581,51.0810359 Z M46.0388142,43.5724082 C46.0388142,43.1831471 46.3227666,42.9519758 46.7016237,42.9519758 C47.0799733,42.9519758 47.3639258,43.1831471 47.3639258,43.5724082 C47.3639258,43.929696 47.0799733,44.1928406 46.7016237,44.1928406 C46.3227666,44.1928406 46.0388142,43.929696 46.0388142,43.5724082 Z M48.2565111,50.5658613 L51.264276,46.1489916 L48.582587,46.1489916 L48.582587,45.3704695 L52.4734213,45.3704695 L52.4734213,45.8861008 L49.4659102,50.3029705 L52.5787299,50.3029705 L52.5787299,51.0809851 L48.2565111,51.0809851 L48.2565111,50.5658613 Z M57.1446556,47.7683582 C57.1446556,46.6114865 56.618874,45.9910541 55.7248931,45.9910541 C54.9151591,45.9910541 54.2000758,46.6429522 54.0843633,47.7683582 L57.1446556,47.7683582 Z M53.1381087,48.2309547 C53.1381087,46.3800614 54.3896312,45.2234435 55.7144891,45.2234435 C57.1657173,45.2234435 57.9858554,46.2750066 57.9858554,47.9051325 C57.9858554,48.1154959 57.9647936,48.3152015 57.9437319,48.4519758 L54.0947673,48.4519758 C54.1579524,49.6717789 54.9047551,50.4500472 55.9877839,50.4500472 C56.5452849,50.4500472 56.9974774,50.2818073 57.4182041,49.9978548 L57.765088,50.6286912 C57.2603681,50.9550208 56.6505935,51.2179116 55.8720714,51.2179116 C54.3579118,51.2179116 53.1381087,50.1135673 53.1381087,48.2309547 Z M62.9451022,49.6298838 L62.9451022,46.6325229 C62.4614441,46.2013921 62.0303133,46.0331522 61.5568054,46.0331522 C60.6313588,46.0331522 59.9058716,46.9167291 59.9058716,48.2205253 C59.9058716,49.5981644 60.4737766,50.4183024 61.4832163,50.4183024 C62.0092516,50.4183024 62.4718481,50.1556654 62.9451022,49.6298838 Z M58.9172399,48.2309293 C58.9172399,46.3800361 60.0847693,45.2234181 61.3885655,45.2234181 C62.061779,45.2234181 62.4929098,45.4759049 62.9976296,45.8963779 L62.9451022,44.9079999 L62.9451022,42.7099691 L63.9020145,42.7099691 L63.9020145,51.081112 L63.1237461,51.081112 L63.0290953,50.4078984 L63.0080336,50.4078984 C62.5560949,50.8496869 61.9564705,51.2178862 61.2728529,51.2178862 C59.8426865,51.2178862 58.9172399,50.1346037 58.9172399,48.2309293 Z M70.8499185,49.6928406 L70.8499185,48.0944342 C68.9254362,48.3256055 68.2735381,48.7991134 68.2735381,49.5352584 C68.2735381,50.1871564 68.7153265,50.4500472 69.2829778,50.4500472 C69.840225,50.4500472 70.2926712,50.1871564 70.8499185,49.6928406 Z M67.3374337,49.5981897 C67.3374337,48.3573249 68.4207163,47.7368925 70.8499185,47.4635978 C70.8499185,46.7271991 70.6080894,46.0227736 69.6722388,46.0227736 C69.009683,46.0227736 68.4103123,46.327534 67.9581199,46.6325482 L67.5792628,45.9699924 C68.1052981,45.6335125 68.9150322,45.2234435 69.8298211,45.2234435 C71.2181178,45.2234435 71.8068308,46.1592941 71.8068308,47.5686526 L71.8068308,51.0811374 L71.0184122,51.0811374 L70.9341653,50.3975198 L70.9026997,50.3975198 C70.3558564,50.8497123 69.7141085,51.2179116 69.009683,51.2179116 C68.0527707,51.2179116 67.3374337,50.6286912 67.3374337,49.5981897 Z M77.1122764,49.6298838 L77.1122764,46.6325229 C76.6286183,46.2013921 76.1974875,46.0331522 75.7239796,46.0331522 C74.798533,46.0331522 74.072792,46.9167291 74.072792,48.2205253 C74.072792,49.5981644 74.6409508,50.4183024 75.6503905,50.4183024 C76.1764258,50.4183024 76.6390222,50.1556654 77.1122764,49.6298838 Z M73.084414,48.2309293 C73.084414,46.3800361 74.2519435,45.2234181 75.5557396,45.2234181 C76.2289532,45.2234181 76.6600839,45.4759049 77.1648038,45.8963779 L77.1122764,44.9079999 L77.1122764,42.7099691 L78.0691887,42.7099691 L78.0691887,51.081112 L77.2909203,51.081112 L77.1962695,50.4078984 L77.1752078,50.4078984 C76.7232691,50.8496869 76.1236446,51.2178862 75.4400271,51.2178862 C74.0098606,51.2178862 73.084414,50.1346037 73.084414,48.2309293 Z M79.0563487,45.370571 L80.0553844,45.370571 L81.1280092,48.6204187 C81.3066532,49.177666 81.4855509,49.7663789 81.6641948,50.3028182 L81.7063182,50.3028182 C81.8745582,49.7663789 82.0641136,49.177666 82.2323535,48.6204187 L83.3153824,45.370571 L84.2618907,45.370571 L82.2323535,51.0810866 L81.1173515,51.0810866 L79.0563487,45.370571 Z M88.6700565,47.7683582 C88.6700565,46.6114865 88.144275,45.9910541 87.2502941,45.9910541 C86.44056,45.9910541 85.7254768,46.6429522 85.6097642,47.7683582 L88.6700565,47.7683582 Z M84.6632559,48.2309547 C84.6632559,46.3800614 85.9147784,45.2234435 87.2398901,45.2234435 C88.6911183,45.2234435 89.5112563,46.2750066 89.5112563,47.9051325 C89.5112563,48.1154959 89.4901946,48.3152015 89.4691329,48.4519758 L85.6201682,48.4519758 C85.6833533,49.6717789 86.430156,50.4500472 87.5131848,50.4500472 C88.0706859,50.4500472 88.5228783,50.2818073 88.9433513,49.9978548 L89.2904889,50.6286912 C88.7857691,50.9550208 88.1757407,51.2179116 87.3974723,51.2179116 C85.8833127,51.2179116 84.6632559,50.1135673 84.6632559,48.2309547 Z M90.7885604,45.370571 L91.5772327,45.370571 L91.6614796,46.4119839 L91.6929453,46.4119839 C92.0926103,45.6862429 92.6711731,45.2233927 93.3124134,45.2233927 C93.5649002,45.2233927 93.7437979,45.2551122 93.9226956,45.349763 L93.7437979,46.1909628 C93.5542425,46.1173737 93.417722,46.0963119 93.1862969,46.0963119 C92.7130427,46.0963119 92.1243298,46.4330456 91.7454727,47.4107659 L91.7454727,51.0810866 L90.7885604,51.0810866 L90.7885604,45.370571 Z M95.3499692,49.3141865 L95.3499692,46.1488393 L94.4983655,46.1488393 L94.4983655,45.4233521 L95.3920927,45.370571 L95.5078052,43.7721646 L96.3068815,43.7721646 L96.3068815,45.370571 L97.8527606,45.370571 L97.8527606,46.1488393 L96.3068815,46.1488393 L96.3068815,49.3352482 C96.3068815,50.0399275 96.5279027,50.4395925 97.1904585,50.4395925 C97.3901641,50.4395925 97.6530549,50.3660034 97.8423566,50.2921605 L98.0316582,51.0074975 C97.7055823,51.1125523 97.3272327,51.2178609 96.9800951,51.2178609 C95.7600383,51.2178609 95.3499692,50.4606542 95.3499692,49.3141865 Z M99.0138446,51.0810359 L99.0138446,45.3705202 L99.9707569,45.3705202 L99.9707569,51.0810359 L99.0138446,51.0810359 Z M98.8352007,43.5724082 C98.8352007,43.1831471 99.1191532,42.9519758 99.4975027,42.9519758 C99.8761061,42.9519758 100.160059,43.1831471 100.160059,43.5724082 C100.160059,43.929696 99.8761061,44.1928406 99.4975027,44.1928406 C99.1191532,44.1928406 98.8352007,43.929696 98.8352007,43.5724082 Z M101.049573,50.4290616 L101.522574,49.7982253 C102.017143,50.1976365 102.532267,50.4711851 103.215885,50.4711851 C103.973091,50.4711851 104.341291,50.07152 104.341291,49.5772041 C104.341291,48.9986414 103.668077,48.7357506 103.036987,48.4939216 C102.237911,48.1995651 101.333272,47.8105578 101.333272,46.8429877 C101.333272,45.9386028 102.059267,45.2232659 103.299878,45.2232659 C104.004811,45.2232659 104.62499,45.5178761 105.077182,45.8650137 L104.614586,46.4854461 C104.214921,46.1910897 103.815255,45.9807263 103.299878,45.9807263 C102.584795,45.9807263 102.258972,46.3593296 102.258972,46.8008643 C102.258972,47.3477076 102.879405,47.547667 103.520645,47.7894961 C104.351695,48.1049143 105.266484,48.4413942 105.266484,49.5246767 C105.266484,50.4501234 104.530339,51.217734 103.184165,51.217734 C102.374685,51.217734 101.596163,50.8812541 101.049573,50.4290616 Z M106.403968,51.0810359 L106.403968,45.3705202 L107.360881,45.3705202 L107.360881,51.0810359 L106.403968,51.0810359 Z M106.225325,43.5724082 C106.225325,43.1831471 106.509277,42.9519758 106.887627,42.9519758 C107.26623,42.9519758 107.550436,43.1831471 107.550436,43.5724082 C107.550436,43.929696 107.26623,44.1928406 106.887627,44.1928406 C106.509277,44.1928406 106.225325,43.929696 106.225325,43.5724082 Z M109.025517,45.370571 L109.81419,45.370571 L109.898437,46.1909628 L109.929902,46.1909628 C110.476999,45.6545235 111.065712,45.2233927 111.843727,45.2233927 C113.042722,45.2233927 113.589565,46.0016611 113.589565,47.463547 L113.589565,51.0810866 L112.632653,51.0810866 L112.632653,47.5896635 C112.632653,46.5170387 112.306831,46.0645925 111.54937,46.0645925 C110.960657,46.0645925 110.560992,46.3592027 109.98243,46.9377655 L109.98243,51.0810866 L109.025517,51.0810866 L109.025517,45.370571 Z M118.345833,47.2635622 C118.345833,46.4330202 117.809394,45.9280466 117.13618,45.9280466 C116.46322,45.9280466 115.916631,46.4223625 115.916631,47.2635622 C115.916631,48.094358 116.473878,48.6203933 117.13618,48.6203933 C117.788332,48.6203933 118.345833,48.094358 118.345833,47.2635622 Z M119.092382,51.8801376 C119.092382,51.354356 118.682313,51.1757121 117.925106,51.1757121 L116.936475,51.1757121 C116.726111,51.1757121 116.452816,51.1442464 116.20033,51.0810612 C115.790261,51.3754177 115.611617,51.7118976 115.611617,52.0483775 C115.611617,52.6586597 116.232049,53.058071 117.272954,53.058071 C118.366641,53.058071 119.092382,52.479762 119.092382,51.8801376 Z M114.770163,52.1747478 C114.770163,51.6908359 115.085581,51.2282395 115.622021,50.8813556 L115.622021,50.8392322 C115.317006,50.6603345 115.095985,50.355574 115.095985,49.9031278 C115.095985,49.4298737 115.443377,49.0515241 115.737733,48.8411607 L115.737733,48.7990373 C115.358876,48.4940231 114.99093,47.9471798 114.99093,47.2635622 C114.99093,46.0120397 115.979562,45.2233674 117.13618,45.2233674 C117.451852,45.2233674 117.735805,45.2969565 117.935764,45.3705456 L119.923178,45.3705456 L119.923178,46.1066905 L118.755902,46.1066905 C119.029197,46.3698351 119.218498,46.7905618 119.218498,47.284624 C119.218498,48.5046808 118.293052,49.2722914 117.13618,49.2722914 C116.852481,49.2722914 116.536809,49.1987023 116.284576,49.072332 C116.074213,49.2512297 115.916631,49.4405314 115.916631,49.7559496 C115.916631,50.1238952 116.147802,50.3766357 116.915413,50.3766357 L118.030161,50.3766357 C119.355526,50.3766357 120.017829,50.7971087 120.017829,51.7329593 C120.017829,52.7951802 118.90308,53.7099691 117.13618,53.7099691 C115.737733,53.7099691 114.770163,53.1633795 114.770163,52.1747478 Z" id="形状结合" fill="#535966"></path>
                    <path d="M62.1787794,9.04302202 C64.9980759,11.6064312 64.8459843,15.3817696 64.8459843,18.8102326 C64.8459843,22.2394961 64.9980759,26.5693014 62.1787794,29.1321769 C60.5404603,30.6216065 58.1400825,31.4178189 55.3207861,31.4178189 L48.9198678,31.4178189 L48.9198678,29.0628018 L54.8252879,29.0628018 C56.920949,29.0628018 58.7497827,28.57771 60.1596978,27.2617181 C62.0264211,25.495055 61.9503753,21.8240461 61.9503753,18.8102326 C61.9503753,15.7969527 62.0264211,12.6801439 60.1596978,10.9134809 C58.7497827,9.59748899 56.920949,9.1123971 54.8252879,9.1123971 L48.9198678,9.1123971 L48.9198678,29.0628018 L46.0242588,29.0628018 L46.0242588,6.75738002 L55.3207861,6.75738002 C58.1400825,6.75738002 60.5404603,7.55412611 62.1787794,9.04302202 Z M76.6142625,23.5559149 L86.7488942,23.5559149 L81.7197346,10.5323449 L76.6142625,23.5559149 Z M80.4624448,6.75727329 L82.9009788,6.75727329 L92.8450958,31.417979 L89.7589721,31.417979 L87.5872653,25.8415569 L75.7380019,25.8415569 L74.4836471,29.0629619 L71.4335451,29.0629619 L80.4624448,6.75727329 Z M116.520032,9.04302202 C119.339328,11.6064312 119.187237,15.3817696 119.187237,18.8102326 C119.187237,22.2394961 119.339328,26.5693014 116.520032,29.1321769 C114.881713,30.6216065 112.481335,31.4178189 109.662039,31.4178189 L103.26112,31.4178189 L103.26112,29.0628018 L109.16654,29.0628018 C111.262201,29.0628018 113.091035,28.57771 114.50095,27.2617181 C116.367674,25.495055 116.291628,21.8240461 116.291628,18.8102326 C116.291628,15.7969527 116.367674,12.6801439 114.50095,10.9134809 C113.091035,9.59748899 111.262201,9.1123971 109.16654,9.1123971 L103.26112,9.1123971 L103.26112,29.0628018 L100.365511,29.0628018 L100.365511,6.75738002 L109.662039,6.75738002 C112.481335,6.75738002 114.881713,7.55412611 116.520032,9.04302202 Z" id="形状结合" fill="#535966"></path>
                </g>
            </g>
        </g>
    </g>
</svg>