<?xml version="1.0" encoding="UTF-8"?>
<svg width="23px" height="24px" viewBox="0 0 23 24" version="1.1" xmlns="http://www.w3.org/2000/svg" xmlns:xlink="http://www.w3.org/1999/xlink">
    <!-- Generator: Sketch 55.2 (78181) - https://sketchapp.com -->
    <title>付款icon</title>
    <desc>Created with Sketch.</desc>
    <g id="页面1" stroke="none" stroke-width="1" fill="none" fill-rule="evenodd">
        <g id="Create-Campaign" transform="translate(-362.000000, -622.000000)" fill="#158EE9" fill-rule="nonzero">
            <path d="M384.826646,637.724227 C385.171385,638.385023 384.986703,639.201301 384.408034,639.654789 C384.408034,639.667745 384.38341,639.680702 384.371098,639.680702 L375.161642,645.174381 C374.546037,645.537171 373.819623,645.601955 373.167081,645.342819 L367.244957,643.010597 C367.232645,643.567739 366.78941,644.00827 366.259989,644.00827 L362.972656,644.00827 C362.443236,644.021226 362.012312,643.567739 362,643.010597 L362,635.314264 C362,634.757122 362.430924,634.290678 362.972656,634.290678 L366.284613,634.290678 C366.727849,634.290678 367.121836,634.614598 367.232645,635.081042 C368.439232,634.938517 371.431074,634.873733 373.499508,637.180042 L377.464006,637.180042 C377.525567,637.180042 377.587127,637.192999 377.636376,637.218912 C378.12886,637.413264 378.522847,637.827881 378.707529,638.35911 C378.769089,638.592332 378.781402,638.838511 378.744465,639.071733 L382.930582,636.907949 L382.992142,636.907949 C383.706244,636.66177 384.494219,637.011604 384.826646,637.724227 Z M366.284613,642.99764 L366.309237,635.275394 L362.972656,635.275394 L362.948032,642.99764 L366.284613,642.99764 Z M383.866302,638.812597 L383.878614,638.812597 C384.075607,638.670073 384.124856,638.372066 383.977111,638.164758 C383.866302,637.892665 383.583123,637.737184 383.312257,637.814925 L378.448975,640.328542 C378.12886,640.49698 377.771809,640.587677 377.414758,640.587677 L371.283329,640.587677 C371.012462,640.587677 370.803156,640.354455 370.803156,640.082363 C370.803156,639.797313 371.024774,639.577048 371.283329,639.577048 L377.476318,639.577048 C377.513255,639.551134 377.513255,639.499307 377.513255,639.499307 C377.72256,639.266085 377.821057,638.942165 377.784121,638.618245 C377.697936,638.410937 377.550191,638.242499 377.353197,638.151801 L373.265578,638.151801 C373.130145,638.151801 372.994711,638.087017 372.908527,637.983363 C371.098647,635.819579 368.242238,635.93619 367.244957,636.052801 L367.244957,641.922227 L373.51182,644.384017 C373.905807,644.526541 374.336731,644.487671 374.693782,644.280362 L383.866302,638.812597 Z M370.101366,632.839518 C369.301079,632.839518 368.636226,632.139851 368.636226,631.29766 L368.636226,624.041858 C368.636226,623.18671 369.288767,622.5 370.101366,622.5 L382.499658,622.5 C383.312257,622.5 383.964799,623.18671 383.964799,624.041858 L383.964799,631.29766 C383.964799,632.152808 383.312257,632.839518 382.499658,632.839518 L370.101366,632.839518 Z M369.584258,624.041858 L369.59657,631.29766 C369.59657,631.582709 369.818188,631.828888 370.101366,631.828888 L382.487346,631.828888 C382.758212,631.828888 382.992142,631.595666 382.992142,631.29766 L382.992142,624.041858 C382.992142,623.756809 382.770524,623.51063 382.487346,623.51063 L370.089054,623.51063 C369.818188,623.51063 369.584258,623.743852 369.584258,624.041858 Z M371.199061,630.184815 C370.920168,630.184815 370.70466,629.941261 370.70466,629.657114 C370.70466,629.359437 370.932845,629.129413 371.199061,629.129413 L375.990956,629.129413 C376.269849,629.129413 376.485357,629.372968 376.485357,629.657114 C376.485357,629.954792 376.257172,630.184815 375.990956,630.184815 L371.199061,630.184815 Z M378.082656,630.184815 C377.816439,630.184815 377.588254,629.941261 377.588254,629.657114 C377.588254,629.359437 377.816439,629.129413 378.082656,629.129413 L379.553184,629.129413 C379.832077,629.129413 380.047586,629.372968 380.047586,629.657114 C380.047586,629.954792 379.8194,630.184815 379.553184,630.184815 L378.082656,630.184815 Z" id="付款icon"></path>
        </g>
    </g>
</svg>