<?xml version="1.0" encoding="UTF-8"?>
<svg width="409px" height="143px" viewBox="0 0 409 143" version="1.1" xmlns="http://www.w3.org/2000/svg" xmlns:xlink="http://www.w3.org/1999/xlink">
    <!-- Generator: Sketch 55.2 (78181) - https://sketchapp.com -->
    <title>DecentralizedAdvertising</title>
    <desc>Created with Sketch.</desc>
    <g id="页面1" stroke="none" stroke-width="1" fill="none" fill-rule="evenodd">
        <g id="登录页面-hover" transform="translate(-169.000000, -239.000000)" fill="#283A4D" fill-rule="nonzero">
            <g id="main" transform="translate(170.000000, 93.000000)">
                <g id="文案" transform="translate(0.000000, 134.000000)">
                    <path d="M5.5546875,64.0351562 C5.27343609,64.0351562 5.1328125,63.8945327 5.1328125,63.6132812 L5.1328125,13.234375 C5.1328125,12.9531236 5.27343609,12.8125 5.5546875,12.8125 L23.203125,12.8125 C30.2344102,12.8125 35.4609204,15.7070023 38.8828125,21.4960938 C39.5156282,22.6210994 40.031248,23.687495 40.4296875,24.6953125 C40.828127,25.70313 41.0976555,26.6874952 41.2382812,27.6484375 C41.5195327,29.5234469 41.6601562,33.1210671 41.6601562,38.4414062 C41.6601562,44.1367472 41.4609395,47.9570215 41.0625,49.9023438 C40.8749991,50.8867237 40.5937519,51.8417922 40.21875,52.7675781 C39.8437481,53.693364 39.3515655,54.6132767 38.7421875,55.5273438 L38.7421875,55.4921875 C37.2187424,57.9062621 35.1093885,59.9335855 32.4140625,61.5742188 C29.6718613,63.214852 26.4375186,64.0351562 22.7109375,64.0351562 L5.5546875,64.0351562 Z M13.6054688,20.8984375 L13.6054688,56.0195312 L22.359375,56.0195312 C26.3906452,56.0195312 29.3906152,54.6132953 31.359375,51.8007812 C32.1328164,50.5585875 32.6249989,49.2578193 32.8359375,47.8984375 C32.9531256,47.1484337 33.0410153,46.0175857 33.0996094,44.5058594 C33.1582034,42.9941331 33.1875,41.066418 33.1875,38.7226562 C33.1875,36.4492074 33.1523441,34.5507889 33.0820312,33.0273438 C33.0117184,31.5038986 32.9179693,30.2968795 32.8007812,29.40625 C32.5664051,27.7656168 31.9687548,26.2773504 31.0078125,24.9414062 C29.015615,22.2460803 26.1328314,20.8984375 22.359375,20.8984375 L13.6054688,20.8984375 Z M78.1171875,48.4960938 C78.1171875,48.7773452 77.9765639,48.9179688 77.6953125,48.9179688 L55.9335938,48.9179688 C56.0039066,51.4961066 56.7421805,53.4531183 58.1484375,54.7890625 C59.6953202,56.1953195 61.6523319,56.8984375 64.0195312,56.8984375 C66.8320453,56.8984375 69.3398327,55.796886 71.5429688,53.59375 C71.589844,53.5234371 71.6718744,53.4824219 71.7890625,53.4707031 C71.9062506,53.4589843 72.0117183,53.4882809 72.1054688,53.5585938 L77.3085938,57.9882812 C77.4023442,58.0585941 77.4492188,58.1523432 77.4492188,58.2695312 C77.4492188,58.3867193 77.4140629,58.492187 77.34375,58.5859375 C75.5156159,60.695323 73.4707144,62.2011674 71.2089844,63.1035156 C68.9472543,64.0058639 66.5859498,64.4570312 64.125,64.4570312 C60.3515436,64.4570312 56.7304861,63.2500121 53.2617188,60.8359375 C49.6992009,58.3984253 47.9179688,53.429725 47.9179688,45.9296875 C47.9179688,38.8515271 49.5468587,33.9531386 52.8046875,31.234375 C56.1328291,28.5156114 59.5429513,27.15625 63.0351562,27.15625 C67.0664264,27.15625 70.5820163,28.5507673 73.5820312,31.3398438 C76.6054839,34.1523578 78.1171875,37.9023203 78.1171875,42.5898438 L78.1171875,48.4960938 Z M70.1015625,42.203125 C69.9374992,39.7656128 69.2109439,37.9140688 67.921875,36.6484375 C66.6328061,35.3828062 65.0039161,34.75 63.0351562,34.75 C60.9960836,34.75 59.3203191,35.4062434 58.0078125,36.71875 C57.3984345,37.328128 56.9179705,38.1015578 56.5664062,39.0390625 C56.214842,39.9765672 56.0039066,41.0312441 55.9335938,42.203125 L70.1015625,42.203125 Z M112.605469,57.5664062 C112.699219,57.6367191 112.746094,57.7304682 112.746094,57.8476562 C112.746094,57.9648443 112.710938,58.070312 112.640625,58.1640625 C111.843746,59.0781296 110.970708,59.9160118 110.021484,60.6777344 C109.072261,61.4394569 108.046881,62.1015597 106.945312,62.6640625 C105.843744,63.2265653 104.671881,63.666014 103.429688,63.9824219 C102.187494,64.2988297 100.875007,64.4570312 99.4921875,64.4570312 C95.3202916,64.4570312 91.5000173,63.027358 88.03125,60.1679688 C84.6093579,57.2617042 82.8984375,52.480502 82.8984375,45.8242188 C82.8984375,39.1444979 84.6093579,34.3750143 88.03125,31.515625 C91.4297045,28.6093605 95.2499788,27.15625 99.4921875,27.15625 C100.875007,27.15625 102.187494,27.3144515 103.429688,27.6308594 C104.671881,27.9472672 105.843744,28.3867159 106.945312,28.9492188 C108.046881,29.5117216 109.072261,30.1738243 110.021484,30.9355469 C110.970708,31.6972694 111.843746,32.5351517 112.640625,33.4492188 C112.710938,33.5429692 112.746094,33.6484369 112.746094,33.765625 C112.746094,33.8828131 112.699219,33.9765621 112.605469,34.046875 L107.296875,38.7578125 C107.203125,38.851563 107.097657,38.8925782 106.980469,38.8808594 C106.863281,38.8691406 106.78125,38.8164067 106.734375,38.7226562 C104.765615,36.3320193 102.445326,35.1367188 99.7734375,35.1367188 C93.867158,35.1367188 90.9140625,38.6991831 90.9140625,45.8242188 C90.9140625,52.9258168 93.867158,56.4765625 99.7734375,56.4765625 C102.539076,56.4765625 104.859366,55.281262 106.734375,52.890625 C106.78125,52.8203121 106.863281,52.7734376 106.980469,52.75 C107.097657,52.7265624 107.203125,52.7499996 107.296875,52.8203125 L112.605469,57.5664062 Z M145.898438,48.4960938 C145.898438,48.7773452 145.757814,48.9179688 145.476562,48.9179688 L123.714844,48.9179688 C123.785157,51.4961066 124.52343,53.4531183 125.929688,54.7890625 C127.47657,56.1953195 129.433582,56.8984375 131.800781,56.8984375 C134.613295,56.8984375 137.121083,55.796886 139.324219,53.59375 C139.371094,53.5234371 139.453124,53.4824219 139.570312,53.4707031 C139.687501,53.4589843 139.792968,53.4882809 139.886719,53.5585938 L145.089844,57.9882812 C145.183594,58.0585941 145.230469,58.1523432 145.230469,58.2695312 C145.230469,58.3867193 145.195313,58.492187 145.125,58.5859375 C143.296866,60.695323 141.251964,62.2011674 138.990234,63.1035156 C136.728504,64.0058639 134.3672,64.4570312 131.90625,64.4570312 C128.132794,64.4570312 124.511736,63.2500121 121.042969,60.8359375 C117.480451,58.3984253 115.699219,53.429725 115.699219,45.9296875 C115.699219,38.8515271 117.328109,33.9531386 120.585938,31.234375 C123.914079,28.5156114 127.324201,27.15625 130.816406,27.15625 C134.847676,27.15625 138.363266,28.5507673 141.363281,31.3398438 C144.386734,34.1523578 145.898438,37.9023203 145.898438,42.5898438 L145.898438,48.4960938 Z M137.882812,42.203125 C137.718749,39.7656128 136.992194,37.9140688 135.703125,36.6484375 C134.414056,35.3828062 132.785166,34.75 130.816406,34.75 C128.777334,34.75 127.101569,35.4062434 125.789062,36.71875 C125.179684,37.328128 124.699221,38.1015578 124.347656,39.0390625 C123.996092,39.9765672 123.785157,41.0312441 123.714844,42.203125 L137.882812,42.203125 Z M153.878906,64.0351562 C153.597655,64.0351562 153.457031,63.8945327 153.457031,63.6132812 L153.457031,27.9648438 C153.457031,27.6835923 153.597655,27.5429688 153.878906,27.5429688 L161.050781,27.5429688 C161.332033,27.5429688 161.472656,27.6835923 161.472656,27.9648438 L161.472656,30.8476562 C163.722668,28.3867064 166.722638,27.15625 170.472656,27.15625 C171.925789,27.15625 173.332024,27.4257786 174.691406,27.9648438 C176.050788,28.5039089 177.410149,29.3124946 178.769531,30.390625 C181.44142,32.5703234 182.777344,35.7460729 182.777344,39.9179688 L182.777344,63.6132812 C182.777344,63.8945327 182.63672,64.0351562 182.355469,64.0351562 L175.183594,64.0351562 C174.902342,64.0351562 174.761719,63.8945327 174.761719,63.6132812 L174.761719,42.3789062 C174.761719,40.0585821 174.140631,38.27735 172.898438,37.0351562 C171.585931,35.7695249 170.015634,35.1367188 168.1875,35.1367188 C166.21874,35.1367188 164.601569,35.7695249 163.335938,37.0351562 C162.093744,38.27735 161.472656,40.0585821 161.472656,42.3789062 L161.472656,63.6132812 C161.472656,63.8945327 161.332033,64.0351562 161.050781,64.0351562 L153.878906,64.0351562 Z M192.832031,64.0703125 C192.55078,64.0703125 192.410156,63.9296889 192.410156,63.6484375 L192.410156,33.8710938 L189.246094,33.8710938 C188.964842,33.8710938 188.824219,33.7304702 188.824219,33.4492188 L188.824219,27.9648438 C188.824219,27.6835923 188.964842,27.5429688 189.246094,27.5429688 L192.410156,27.5429688 L192.410156,22.1992188 L199.6875,14.4296875 C199.828126,14.2890623 199.986327,14.2539059 200.162109,14.3242188 C200.337892,14.3945316 200.425781,14.5234366 200.425781,14.7109375 L200.425781,27.5429688 L205.207031,27.5429688 C205.488283,27.5429688 205.628906,27.6835923 205.628906,27.9648438 L205.628906,33.4492188 C205.628906,33.7304702 205.488283,33.8710938 205.207031,33.8710938 L200.425781,33.8710938 L200.425781,63.6484375 C200.425781,63.9296889 200.285158,64.0703125 200.003906,64.0703125 L192.832031,64.0703125 Z M212.484375,64.0351562 C212.226561,64.0351562 212.097656,63.8945327 212.097656,63.6132812 L212.097656,27.9648438 C212.097656,27.6835923 212.226561,27.5429688 212.484375,27.5429688 L219.691406,27.5429688 C219.94922,27.5429688 220.078125,27.6835923 220.078125,27.9648438 L220.078125,30.8476562 C222.328136,28.3867064 225.328106,27.15625 229.078125,27.15625 C231.773451,27.15625 234.339832,28.0937406 236.777344,29.96875 C236.871094,30.0390629 236.923828,30.1328119 236.935547,30.25 C236.947266,30.3671881 236.917969,30.4726558 236.847656,30.5664062 L231.679687,36.7539062 C231.515624,36.9648448 231.328126,36.9882821 231.117187,36.8242188 C229.593742,35.6992131 228.093757,35.1367188 226.617187,35.1367188 C224.953117,35.1367188 223.441413,35.6992131 222.082031,36.8242188 C220.746087,37.9492244 220.078125,39.7421752 220.078125,42.203125 L220.078125,63.6132812 C220.078125,63.8945327 219.94922,64.0351562 219.691406,64.0351562 L212.484375,64.0351562 Z M259.382812,64.1757812 C259.101561,64.1757812 258.960938,64.0351577 258.960938,63.7539062 L258.960938,61.7851562 C258.632811,62.2070334 258.251955,62.5761703 257.818359,62.8925781 C257.384763,63.208986 256.921877,63.4609366 256.429688,63.6484375 C255.703121,63.9531265 254.85352,64.1874992 253.880859,64.3515625 C252.908198,64.5156258 251.847662,64.5976562 250.699219,64.5976562 C246.667949,64.5039058 243.597667,63.4023543 241.488281,61.2929688 L241.488281,61.328125 C239.191395,59.2421771 238.042969,56.5586102 238.042969,53.2773438 C238.042969,50.2070159 239.027334,47.617198 240.996094,45.5078125 C243.011729,43.398427 245.91795,42.3203127 249.714844,42.2734375 L258.960938,42.2734375 L258.960938,38.9335938 C259.007813,36.0273292 256.781273,34.6328119 252.28125,34.75 C251.460933,34.75 250.72266,34.7851559 250.066406,34.8554688 C249.410153,34.9257816 248.812503,35.0546866 248.273437,35.2421875 L248.308594,35.2421875 C247.839841,35.4765637 247.417971,35.7636702 247.042969,36.1035156 C246.667967,36.4433611 246.351564,36.8476539 246.09375,37.3164062 C245.929687,37.5976577 245.718751,37.6328136 245.460937,37.421875 L239.976562,33.0976562 C239.882812,33.0273434 239.824219,32.9394537 239.800781,32.8339844 C239.777344,32.7285151 239.800781,32.6289067 239.871094,32.5351562 C242.589857,28.8554504 246.609348,27.0742182 251.929687,27.1914062 C254.156261,27.1679686 256.148429,27.3671854 257.90625,27.7890625 C259.664071,28.2109396 261.234368,28.8789017 262.617188,29.7929688 C265.335951,31.7148534 266.707031,34.8906029 266.730469,39.3203125 L266.730469,63.7539062 C266.730469,64.0351577 266.589845,64.1757812 266.308594,64.1757812 L259.382812,64.1757812 Z M258.960938,49.0234375 L251.015625,49.0234375 C247.242169,49.1406256 245.367187,50.4413938 245.390625,52.9257812 C245.390625,53.980474 245.871089,54.9179646 246.832031,55.7382812 C247.816411,56.6054731 249.386708,57.0390625 251.542969,57.0390625 C254.425796,57.0625001 256.417963,56.7226598 257.519531,56.0195312 L257.484375,56.0195312 C258.468755,55.363278 258.960938,53.7695439 258.960938,51.2382812 L258.960938,49.0234375 Z M274.605469,13.5859375 C274.605469,13.3046861 274.734374,13.1640625 274.992188,13.1640625 L282.199219,13.1640625 C282.457033,13.1640625 282.585938,13.3046861 282.585938,13.5859375 L282.585938,54.4023438 C282.585938,55.7851632 283.347649,56.4765625 284.871094,56.4765625 L287.296875,56.4765625 C287.578126,56.4765625 287.71875,56.6171861 287.71875,56.8984375 L287.71875,63.6132812 C287.71875,63.8945327 287.578126,64.0351562 287.296875,64.0351562 L284.132812,64.0351562 C281.484362,64.0351562 279.234384,63.3789128 277.382812,62.0664062 C275.531241,60.7070245 274.605469,58.3515793 274.605469,55 L274.605469,13.5859375 Z M293.765625,64.0351562 C293.484374,64.0351562 293.34375,63.8945327 293.34375,63.6132812 L293.34375,27.9648438 C293.34375,27.6835923 293.484374,27.5429688 293.765625,27.5429688 L300.9375,27.5429688 C301.195314,27.5429688 301.324219,27.6835923 301.324219,27.9648438 L301.324219,63.6132812 C301.324219,63.8945327 301.195314,64.0351562 300.9375,64.0351562 L293.765625,64.0351562 Z M293.765625,21.1796875 C293.484374,21.1796875 293.34375,21.0390639 293.34375,20.7578125 L293.34375,13.5859375 C293.34375,13.3046861 293.484374,13.1640625 293.765625,13.1640625 L300.9375,13.1640625 C301.195314,13.1640625 301.324219,13.3046861 301.324219,13.5859375 L301.324219,20.7578125 C301.324219,21.0390639 301.195314,21.1796875 300.9375,21.1796875 L293.765625,21.1796875 Z M308.566406,64.0351562 C308.285155,64.0351562 308.144531,63.8945327 308.144531,63.6132812 L308.144531,57.8125 L325.582031,34.75 L309.550781,34.75 C309.26953,34.75 309.128906,34.6093764 309.128906,34.328125 L309.128906,27.9648438 C309.128906,27.6835923 309.26953,27.5429688 309.550781,27.5429688 L335.144531,27.5429688 C335.425783,27.5429688 335.566406,27.6835923 335.566406,27.9648438 L335.566406,33.8007812 L318.128906,56.4765625 L335.144531,56.4765625 C335.425783,56.4765625 335.566406,56.6171861 335.566406,56.8984375 L335.566406,63.6132812 C335.566406,63.8945327 335.425783,64.0351562 335.144531,64.0351562 L308.566406,64.0351562 Z M370.722656,48.4960938 C370.722656,48.7773452 370.582033,48.9179688 370.300781,48.9179688 L348.539062,48.9179688 C348.609375,51.4961066 349.347649,53.4531183 350.753906,54.7890625 C352.300789,56.1953195 354.257801,56.8984375 356.625,56.8984375 C359.437514,56.8984375 361.945301,55.796886 364.148438,53.59375 C364.195313,53.5234371 364.277343,53.4824219 364.394531,53.4707031 C364.511719,53.4589843 364.617187,53.4882809 364.710938,53.5585938 L369.914062,57.9882812 C370.007813,58.0585941 370.054688,58.1523432 370.054688,58.2695312 C370.054688,58.3867193 370.019532,58.492187 369.949219,58.5859375 C368.121085,60.695323 366.076183,62.2011674 363.814453,63.1035156 C361.552723,64.0058639 359.191419,64.4570312 356.730469,64.4570312 C352.957012,64.4570312 349.335955,63.2500121 345.867188,60.8359375 C342.30467,58.3984253 340.523438,53.429725 340.523438,45.9296875 C340.523438,38.8515271 342.152327,33.9531386 345.410156,31.234375 C348.738298,28.5156114 352.14842,27.15625 355.640625,27.15625 C359.671895,27.15625 363.187485,28.5507673 366.1875,31.3398438 C369.210953,34.1523578 370.722656,37.9023203 370.722656,42.5898438 L370.722656,48.4960938 Z M362.707031,42.203125 C362.542968,39.7656128 361.816413,37.9140688 360.527344,36.6484375 C359.238275,35.3828062 357.609385,34.75 355.640625,34.75 C353.601552,34.75 351.925788,35.4062434 350.613281,36.71875 C350.003903,37.328128 349.523439,38.1015578 349.171875,39.0390625 C348.820311,39.9765672 348.609375,41.0312441 348.539062,42.203125 L362.707031,42.203125 Z M400.007812,64.0351562 C399.726561,64.0351562 399.585938,63.8945327 399.585938,63.6132812 L399.585938,60.9414062 C397.124988,63.285168 394.195329,64.4570312 390.796875,64.4570312 C388.523426,64.4570312 386.572274,64.0117232 384.943359,63.1210938 C383.314445,62.2304643 381.972662,61.0820383 380.917969,59.6757812 L380.953125,59.6757812 C379.874995,58.3632747 379.160158,56.8164152 378.808594,55.0351562 C378.457029,53.277335 378.28125,50.1836159 378.28125,45.7539062 C378.28125,41.3945095 378.457029,38.3476649 378.808594,36.6132812 C378.996095,35.769527 379.265623,34.9492227 379.617188,34.1523438 C379.968752,33.3554648 380.41406,32.6171909 380.953125,31.9375 L380.917969,31.9375 C381.972662,30.5546806 383.314445,29.4121139 384.943359,28.5097656 C386.572274,27.6074174 388.523426,27.15625 390.796875,27.15625 C392.554696,27.15625 394.142571,27.4960904 395.560547,28.1757812 C396.978523,28.8554721 398.320306,29.7460882 399.585938,30.8476562 L399.585938,13.5859375 C399.585938,13.3046861 399.726561,13.1640625 400.007812,13.1640625 L407.179688,13.1640625 C407.460939,13.1640625 407.601562,13.3046861 407.601562,13.5859375 L407.601562,63.6132812 C407.601562,63.8945327 407.460939,64.0351562 407.179688,64.0351562 L400.007812,64.0351562 Z M393.011719,35.1367188 C389.800765,35.1367188 387.878909,36.1913957 387.246094,38.3007812 L387.28125,38.3007812 C386.953123,39.4726621 386.707032,40.673822 386.542969,41.9042969 C386.378905,43.1347718 386.296875,44.4179621 386.296875,45.7539062 C386.296875,47.113288 386.378905,48.4257749 386.542969,49.6914062 C386.707032,50.9570376 386.953123,52.1640568 387.28125,53.3125 L387.246094,53.3125 C387.878909,55.4218855 389.800765,56.4765625 393.011719,56.4765625 C396.128922,56.4765625 397.980466,55.375011 398.566406,53.171875 C399.246097,50.7343628 399.585938,48.2617313 399.585938,45.7539062 C399.585938,43.3163941 399.246097,40.8789184 398.566406,38.4414062 C397.957028,36.2382702 396.105484,35.1367188 393.011719,35.1367188 Z M0.24609375,140 C0.0820304297,140 -0.0351558984,139.941407 -0.10546875,139.824219 C-0.175781602,139.707031 -0.187500234,139.578126 -0.140625,139.4375 L18.28125,89.0234375 C18.3281252,88.8359366 18.4453116,88.7421875 18.6328125,88.7421875 L24.9257812,88.7421875 C24.9960941,88.7421875 25.0722652,88.7714841 25.1542969,88.8300781 C25.2363285,88.8886722 25.2890624,88.9531246 25.3125,89.0234375 L43.6992188,139.4375 C43.746094,139.578126 43.7343754,139.707031 43.6640625,139.824219 C43.5937496,139.941407 43.488282,140 43.3476562,140 L35.296875,140 C35.1093741,140 34.9921877,139.906251 34.9453125,139.71875 L31.1484375,128.609375 L12.5859375,128.609375 C11.9296842,130.507822 11.2793001,132.365225 10.6347656,134.181641 C9.99023115,135.998056 9.33984703,137.843741 8.68359375,139.71875 C8.66015613,139.789063 8.60742229,139.853515 8.52539062,139.912109 C8.44335896,139.970703 8.36718785,140 8.296875,140 L0.24609375,140 Z M28.6171875,121.050781 C28.5703123,120.886718 28.5058598,120.710938 28.4238281,120.523438 C28.3417965,120.335937 28.277344,120.171876 28.2304688,120.03125 C27.8320293,118.882807 27.4687516,117.82227 27.140625,116.849609 C26.8124984,115.876948 26.5195325,115.027347 26.2617188,114.300781 C26.0976554,113.832029 25.9394539,113.375002 25.7871094,112.929688 C25.6347649,112.484373 25.488282,112.062502 25.3476562,111.664062 C25.2304682,111.289061 25.1132818,110.931642 24.9960938,110.591797 C24.8789057,110.251951 24.7617193,109.91797 24.6445312,109.589844 C24.4335927,108.910153 24.216798,108.230472 23.9941406,107.550781 C23.7714833,106.87109 23.5429699,106.167972 23.3085938,105.441406 C23.1914057,105.11328 23.06836,104.750002 22.9394531,104.351562 C22.8105462,103.953123 22.675782,103.531252 22.5351562,103.085938 C22.4648434,102.851561 22.4121096,102.669923 22.3769531,102.541016 C22.3417967,102.412109 22.3007815,102.283204 22.2539062,102.154297 C22.207031,102.02539 22.1542972,101.878907 22.0957031,101.714844 C22.0371091,101.55078 21.960938,101.316408 21.8671875,101.011719 C21.6093737,101.78516 21.3691417,102.499997 21.1464844,103.15625 C20.923827,103.812503 20.7187509,104.421872 20.53125,104.984375 C20.4843748,105.125001 20.4492189,105.253906 20.4257812,105.371094 C20.4023436,105.488282 20.3671877,105.605468 20.3203125,105.722656 C20.2031244,106.121096 20.0800788,106.496092 19.9511719,106.847656 C19.822265,107.199221 19.6992193,107.550779 19.5820312,107.902344 C19.4648432,108.277346 19.3476568,108.640623 19.2304688,108.992188 C19.1132807,109.343752 18.9960943,109.683592 18.8789062,110.011719 C18.6445301,110.714847 18.4042981,111.453121 18.1582031,112.226562 C17.9121081,113.000004 17.6367203,113.80859 17.3320312,114.652344 C17.0273422,115.496098 16.7109391,116.404292 16.3828125,117.376953 C16.0546859,118.349614 15.6328151,119.574211 15.1171875,121.050781 L28.6171875,121.050781 Z M71.0859375,140.035156 C70.8046861,140.035156 70.6640625,139.894533 70.6640625,139.613281 L70.6640625,136.941406 C68.2031127,139.285168 65.2734545,140.457031 61.875,140.457031 C59.6015511,140.457031 57.6503988,140.011723 56.0214844,139.121094 C54.39257,138.230464 53.0507865,137.082038 51.9960938,135.675781 L52.03125,135.675781 C50.9531196,134.363275 50.238283,132.816415 49.8867188,131.035156 C49.5351545,129.277335 49.359375,126.183616 49.359375,121.753906 C49.359375,117.394509 49.5351545,114.347665 49.8867188,112.613281 C50.0742197,111.769527 50.3437482,110.949223 50.6953125,110.152344 C51.0468768,109.355465 51.4921848,108.617191 52.03125,107.9375 L51.9960938,107.9375 C53.0507865,106.554681 54.39257,105.412114 56.0214844,104.509766 C57.6503988,103.607417 59.6015511,103.15625 61.875,103.15625 C63.6328213,103.15625 65.220696,103.49609 66.6386719,104.175781 C68.0566477,104.855472 69.3984312,105.746088 70.6640625,106.847656 L70.6640625,89.5859375 C70.6640625,89.3046861 70.8046861,89.1640625 71.0859375,89.1640625 L78.2578125,89.1640625 C78.5390639,89.1640625 78.6796875,89.3046861 78.6796875,89.5859375 L78.6796875,139.613281 C78.6796875,139.894533 78.5390639,140.035156 78.2578125,140.035156 L71.0859375,140.035156 Z M64.0898438,111.136719 C60.8788902,111.136719 58.9570344,112.191396 58.3242188,114.300781 L58.359375,114.300781 C58.0312484,115.472662 57.7851571,116.673822 57.6210938,117.904297 C57.4570304,119.134772 57.375,120.417962 57.375,121.753906 C57.375,123.113288 57.4570304,124.425775 57.6210938,125.691406 C57.7851571,126.957038 58.0312484,128.164057 58.359375,129.3125 L58.3242188,129.3125 C58.9570344,131.421886 60.8788902,132.476562 64.0898438,132.476562 C67.2070468,132.476562 69.0585908,131.375011 69.6445312,129.171875 C70.3242221,126.734363 70.6640625,124.261731 70.6640625,121.753906 C70.6640625,119.316394 70.3242221,116.878918 69.6445312,114.441406 C69.0351532,112.23827 67.1836092,111.136719 64.0898438,111.136719 Z M95.0976562,140.035156 C95.0273434,140.035156 94.9511723,140.00586 94.8691406,139.947266 C94.787109,139.888672 94.7343751,139.824219 94.7109375,139.753906 L81.6679688,104.105469 C81.6210935,103.964843 81.6328121,103.835938 81.703125,103.71875 C81.7734379,103.601562 81.8789055,103.542969 82.0195312,103.542969 L89.6132812,103.542969 C89.8242198,103.542969 89.9531248,103.636718 90,103.824219 L98.0507812,127.871094 C99.3867254,123.839824 100.728509,119.832051 102.076172,115.847656 C103.423835,111.863261 104.765618,107.855489 106.101562,103.824219 C106.148438,103.636718 106.277343,103.542969 106.488281,103.542969 L114.082031,103.542969 C114.246095,103.542969 114.363281,103.601562 114.433594,103.71875 C114.503907,103.835938 114.515625,103.964843 114.46875,104.105469 L101.390625,139.753906 C101.367187,139.824219 101.314454,139.888672 101.232422,139.947266 C101.15039,140.00586 101.074219,140.035156 101.003906,140.035156 L95.0976562,140.035156 Z M146.917969,124.496094 C146.917969,124.777345 146.777345,124.917969 146.496094,124.917969 L124.734375,124.917969 C124.804688,127.496107 125.542962,129.453118 126.949219,130.789062 C128.496101,132.19532 130.453113,132.898438 132.820312,132.898438 C135.632827,132.898438 138.140614,131.796886 140.34375,129.59375 C140.390625,129.523437 140.472656,129.482422 140.589844,129.470703 C140.707032,129.458984 140.8125,129.488281 140.90625,129.558594 L146.109375,133.988281 C146.203125,134.058594 146.25,134.152343 146.25,134.269531 C146.25,134.386719 146.214844,134.492187 146.144531,134.585938 C144.316397,136.695323 142.271496,138.201167 140.009766,139.103516 C137.748036,140.005864 135.386731,140.457031 132.925781,140.457031 C129.152325,140.457031 125.531267,139.250012 122.0625,136.835938 C118.499982,134.398425 116.71875,129.429725 116.71875,121.929688 C116.71875,114.851527 118.34764,109.953139 121.605469,107.234375 C124.93361,104.515611 128.343733,103.15625 131.835938,103.15625 C135.867208,103.15625 139.382798,104.550767 142.382812,107.339844 C145.406265,110.152358 146.917969,113.90232 146.917969,118.589844 L146.917969,124.496094 Z M138.902344,118.203125 C138.73828,115.765613 138.011725,113.914069 136.722656,112.648438 C135.433587,111.382806 133.804697,110.75 131.835938,110.75 C129.796865,110.75 128.1211,111.406243 126.808594,112.71875 C126.199216,113.328128 125.718752,114.101558 125.367188,115.039062 C125.015623,115.976567 124.804688,117.031244 124.734375,118.203125 L138.902344,118.203125 Z M154.863281,140.035156 C154.605467,140.035156 154.476562,139.894533 154.476562,139.613281 L154.476562,103.964844 C154.476562,103.683592 154.605467,103.542969 154.863281,103.542969 L162.070312,103.542969 C162.328126,103.542969 162.457031,103.683592 162.457031,103.964844 L162.457031,106.847656 C164.707042,104.386706 167.707012,103.15625 171.457031,103.15625 C174.152357,103.15625 176.718738,104.093741 179.15625,105.96875 C179.25,106.039063 179.302734,106.132812 179.314453,106.25 C179.326172,106.367188 179.296875,106.472656 179.226562,106.566406 L174.058594,112.753906 C173.89453,112.964845 173.707032,112.988282 173.496094,112.824219 C171.972649,111.699213 170.472664,111.136719 168.996094,111.136719 C167.332023,111.136719 165.820319,111.699213 164.460937,112.824219 C163.124993,113.949224 162.457031,115.742175 162.457031,118.203125 L162.457031,139.613281 C162.457031,139.894533 162.328126,140.035156 162.070312,140.035156 L154.863281,140.035156 Z M183.199219,140.070312 C182.917967,140.070312 182.777344,139.929689 182.777344,139.648438 L182.777344,109.871094 L179.613281,109.871094 C179.33203,109.871094 179.191406,109.73047 179.191406,109.449219 L179.191406,103.964844 C179.191406,103.683592 179.33203,103.542969 179.613281,103.542969 L182.777344,103.542969 L182.777344,98.1992188 L190.054688,90.4296875 C190.195313,90.2890623 190.353515,90.2539059 190.529297,90.3242188 C190.705079,90.3945316 190.792969,90.5234366 190.792969,90.7109375 L190.792969,103.542969 L195.574219,103.542969 C195.85547,103.542969 195.996094,103.683592 195.996094,103.964844 L195.996094,109.449219 C195.996094,109.73047 195.85547,109.871094 195.574219,109.871094 L190.792969,109.871094 L190.792969,139.648438 C190.792969,139.929689 190.652345,140.070312 190.371094,140.070312 L183.199219,140.070312 Z M202.992188,140.035156 C202.710936,140.035156 202.570312,139.894533 202.570312,139.613281 L202.570312,103.964844 C202.570312,103.683592 202.710936,103.542969 202.992188,103.542969 L210.164062,103.542969 C210.421876,103.542969 210.550781,103.683592 210.550781,103.964844 L210.550781,139.613281 C210.550781,139.894533 210.421876,140.035156 210.164062,140.035156 L202.992188,140.035156 Z M202.992188,97.1796875 C202.710936,97.1796875 202.570312,97.0390639 202.570312,96.7578125 L202.570312,89.5859375 C202.570312,89.3046861 202.710936,89.1640625 202.992188,89.1640625 L210.164062,89.1640625 C210.421876,89.1640625 210.550781,89.3046861 210.550781,89.5859375 L210.550781,96.7578125 C210.550781,97.0390639 210.421876,97.1796875 210.164062,97.1796875 L202.992188,97.1796875 Z M220.921875,128.46875 C221.109376,128.281249 221.285155,128.26953 221.449219,128.433594 C224.496109,131.410171 228.152322,132.898438 232.417969,132.898438 C234.339853,132.898438 235.957025,132.53516 237.269531,131.808594 C237.832034,131.457029 238.271483,131.02344 238.587891,130.507812 C238.904298,129.992185 239.0625,129.406253 239.0625,128.75 C239.0625,126.898428 237.726576,125.867189 235.054688,125.65625 L228.726562,125.058594 C227.249993,124.917968 225.867194,124.601565 224.578125,124.109375 C223.289056,123.617185 222.14063,122.925786 221.132812,122.035156 C219.117177,120.253897 218.109375,117.757829 218.109375,114.546875 C218.109375,110.796856 219.433581,107.949228 222.082031,106.003906 C224.683607,104.105459 227.917949,103.15625 231.785156,103.15625 C233.378914,103.15625 234.849603,103.273436 236.197266,103.507812 C237.544929,103.742189 238.798822,104.07031 239.958984,104.492188 C241.119146,104.914065 242.197261,105.429684 243.193359,106.039062 C244.189458,106.648441 245.144527,107.328121 246.058594,108.078125 C246.152344,108.148438 246.199219,108.242187 246.199219,108.359375 C246.199219,108.476563 246.164063,108.582031 246.09375,108.675781 L241.664062,113.878906 C241.499999,114.04297 241.312501,114.066407 241.101562,113.949219 C239.718743,113.011714 238.28907,112.244144 236.8125,111.646484 C235.33593,111.048825 233.660166,110.75 231.785156,110.75 C229.605458,110.75 228.105473,111.124996 227.285156,111.875 C226.488277,112.601566 226.089844,113.515619 226.089844,114.617188 C226.089844,115.296878 226.38281,115.929685 226.96875,116.515625 C227.531253,117.078128 228.679679,117.429687 230.414062,117.570312 C231.398442,117.640625 232.388667,117.710937 233.384766,117.78125 C234.380864,117.851563 235.35937,117.921875 236.320312,117.992188 C238.148447,118.109376 239.771477,118.478513 241.189453,119.099609 C242.607429,119.720706 243.726558,120.54687 244.546875,121.578125 C246.210946,123.687511 247.042969,126.183579 247.042969,129.066406 C247.042969,132.722675 245.554702,135.546865 242.578125,137.539062 C241.101555,138.500005 239.478524,139.22656 237.708984,139.71875 C235.939444,140.21094 233.988292,140.457031 231.855469,140.457031 C225.855439,140.457031 220.535179,138.300803 215.894531,133.988281 C215.683593,133.777343 215.683593,133.566407 215.894531,133.355469 L220.921875,128.46875 Z M254.8125,140.035156 C254.531249,140.035156 254.390625,139.894533 254.390625,139.613281 L254.390625,103.964844 C254.390625,103.683592 254.531249,103.542969 254.8125,103.542969 L261.984375,103.542969 C262.242189,103.542969 262.371094,103.683592 262.371094,103.964844 L262.371094,139.613281 C262.371094,139.894533 262.242189,140.035156 261.984375,140.035156 L254.8125,140.035156 Z M254.8125,97.1796875 C254.531249,97.1796875 254.390625,97.0390639 254.390625,96.7578125 L254.390625,89.5859375 C254.390625,89.3046861 254.531249,89.1640625 254.8125,89.1640625 L261.984375,89.1640625 C262.242189,89.1640625 262.371094,89.3046861 262.371094,89.5859375 L262.371094,96.7578125 C262.371094,97.0390639 262.242189,97.1796875 261.984375,97.1796875 L254.8125,97.1796875 Z M271.96875,140.035156 C271.687499,140.035156 271.546875,139.894533 271.546875,139.613281 L271.546875,103.964844 C271.546875,103.683592 271.687499,103.542969 271.96875,103.542969 L279.140625,103.542969 C279.421876,103.542969 279.5625,103.683592 279.5625,103.964844 L279.5625,106.847656 C281.812511,104.386706 284.812481,103.15625 288.5625,103.15625 C290.015632,103.15625 291.421868,103.425779 292.78125,103.964844 C294.140632,104.503909 295.499993,105.312495 296.859375,106.390625 C299.531263,108.570323 300.867188,111.746073 300.867188,115.917969 L300.867188,139.613281 C300.867188,139.894533 300.726564,140.035156 300.445312,140.035156 L293.273438,140.035156 C292.992186,140.035156 292.851562,139.894533 292.851562,139.613281 L292.851562,118.378906 C292.851562,116.058582 292.230475,114.27735 290.988281,113.035156 C289.675775,111.769525 288.105478,111.136719 286.277344,111.136719 C284.308584,111.136719 282.691413,111.769525 281.425781,113.035156 C280.183588,114.27735 279.5625,116.058582 279.5625,118.378906 L279.5625,139.613281 C279.5625,139.894533 279.421876,140.035156 279.140625,140.035156 L271.96875,140.035156 Z M330.222656,136.941406 C327.738269,139.285168 324.808611,140.457031 321.433594,140.457031 C319.042957,140.457031 317.015633,139.976567 315.351562,139.015625 C314.578121,138.546873 313.869144,138.048831 313.224609,137.521484 C312.580075,136.994138 312.058596,136.472659 311.660156,135.957031 C311.144529,135.27734 310.699221,134.568363 310.324219,133.830078 C309.949217,133.091793 309.66797,132.34766 309.480469,131.597656 C309.105467,130.167962 308.917969,126.910182 308.917969,121.824219 C308.917969,116.761693 309.105467,113.515632 309.480469,112.085938 C309.66797,111.335934 309.943358,110.585941 310.306641,109.835938 C310.669924,109.085934 311.121091,108.371097 311.660156,107.691406 C312.457035,106.660151 313.687492,105.652349 315.351562,104.667969 C316.94532,103.660151 318.972644,103.15625 321.433594,103.15625 C324.691423,103.15625 327.621081,104.363269 330.222656,106.777344 L330.222656,103.964844 C330.222656,103.683592 330.351561,103.542969 330.609375,103.542969 L337.816406,103.542969 C338.07422,103.542969 338.203125,103.683592 338.203125,103.964844 L338.203125,138.804688 C338.203125,144.265652 336.597672,148.320299 333.386719,150.96875 C330.175765,153.570326 326.496114,154.871094 322.347656,154.871094 C319.957019,154.871094 317.660167,154.308599 315.457031,153.183594 C313.160145,152.035151 311.214852,150.558603 309.621094,148.753906 C309.550781,148.660156 309.521484,148.554688 309.533203,148.4375 C309.544922,148.320312 309.597656,148.238281 309.691406,148.191406 L315.28125,143.761719 C315.445313,143.644531 315.609374,143.644531 315.773438,143.761719 C316.617192,144.605473 317.613276,145.332028 318.761719,145.941406 C319.910162,146.550784 321.152337,146.855469 322.488281,146.855469 C324.785168,146.855469 326.636712,146.234381 328.042969,144.992188 C329.496101,143.726556 330.222656,141.921887 330.222656,139.578125 L330.222656,136.941406 Z M316.933594,121.824219 C316.933594,123.207038 316.945312,124.373042 316.96875,125.322266 C316.992188,126.271489 317.039062,126.980466 317.109375,127.449219 C317.203125,127.917971 317.33789,128.35742 317.513672,128.767578 C317.689454,129.177736 317.929686,129.558592 318.234375,129.910156 C318.445314,130.214845 318.720701,130.51953 319.060547,130.824219 C319.400392,131.128908 319.792967,131.404296 320.238281,131.650391 C320.683596,131.896486 321.187497,132.095702 321.75,132.248047 C322.312503,132.400391 322.933594,132.476562 323.613281,132.476562 C324.269535,132.476562 324.873044,132.400391 325.423828,132.248047 C325.974612,132.095702 326.472654,131.896486 326.917969,131.650391 C327.363283,131.404296 327.755858,131.128908 328.095703,130.824219 C328.435549,130.51953 328.722655,130.214845 328.957031,129.910156 C329.214845,129.535154 329.43164,129.14258 329.607422,128.732422 C329.783204,128.322264 329.90625,127.894533 329.976562,127.449219 C330.070313,126.980466 330.134765,126.277348 330.169922,125.339844 C330.205078,124.402339 330.222656,123.230476 330.222656,121.824219 C330.222656,120.417962 330.205078,119.246098 330.169922,118.308594 C330.134765,117.371089 330.070313,116.667971 329.976562,116.199219 C329.835937,115.332027 329.484378,114.511723 328.921875,113.738281 L328.957031,113.738281 C328.699217,113.45703 328.400392,113.158205 328.060547,112.841797 C327.720701,112.525389 327.328127,112.244142 326.882812,111.998047 C326.437498,111.751952 325.945315,111.546876 325.40625,111.382812 C324.867185,111.218749 324.269535,111.136719 323.613281,111.136719 C322.933594,111.136719 322.312503,111.218749 321.75,111.382812 C321.187497,111.546876 320.683596,111.751952 320.238281,111.998047 C319.792967,112.244142 319.400392,112.51953 319.060547,112.824219 C318.720701,113.128908 318.445314,113.433592 318.234375,113.738281 C317.671872,114.44141 317.296876,115.261714 317.109375,116.199219 C317.039062,116.667971 316.992188,117.376948 316.96875,118.326172 C316.945312,119.275395 316.933594,120.441399 316.933594,121.824219 Z" id="DecentralizedAdvertising"></path>
                </g>
            </g>
        </g>
    </g>
</svg>